<?xml version="1.0" encoding="UTF-8"?>
<!DOCTYPE svg PUBLIC "-//W3C//DTD SVG 1.1//EN" "http://www.w3.org/Graphics/SVG/1.1/DTD/svg11.dtd">
<!-- Creator: CorelDRAW 2020 (64-Bit) -->
<svg xmlns="http://www.w3.org/2000/svg" xml:space="preserve" width="32px" height="46px" version="1.1" style="shape-rendering:geometricPrecision; text-rendering:geometricPrecision; image-rendering:optimizeQuality; fill-rule:evenodd; clip-rule:evenodd"
viewBox="0 0 34.28 49.26"
 xmlns:xlink="http://www.w3.org/1999/xlink"
 xmlns:xodm="http://www.corel.com/coreldraw/odm/2003">
 <defs>
  <style type="text/css">
   <![CDATA[
    .str0 {stroke:#404142;stroke-width:0.5;stroke-miterlimit:22.9256}
    .str1 {stroke:#404142;stroke-width:0.02;stroke-miterlimit:22.9256}
    .fil1 {fill:#404142}
    .fil0 {fill:white}
   ]]>
  </style>
 </defs>
 <g id="Layer_x0020_1">
  <metadata id="CorelCorpID_0Corel-Layer"/>
  <g id="_1452326478816">
   <path class="fil0 str0" d="M19.71 44.55c0.09,0.15 0.16,0.2 0.29,0.22 0.16,0.04 0.21,0.13 0.34,0.17 0.27,0.08 0.67,-0.01 0.97,0.01 0.23,0.12 0.45,-0.12 0.58,-0.21 0.32,-0.21 0.39,-0.05 0.74,-0.08 0.08,0.07 0.33,0.05 0.44,0.12 0.1,0.05 0.08,0.07 0.15,0.13 0.06,0.05 0.13,0.07 0.19,0.12 0.07,0.05 0.16,0.23 0.23,0.35 0.08,0.15 0.08,0.36 0.08,0.53 -0.02,0.06 -0.03,0.09 -0.06,0.13 -0.26,0.05 -0.31,0.02 -0.58,0.01 -0.17,-0.02 -0.43,-0.06 -0.58,-0.06 -0.1,-0.08 -0.25,-0.05 -0.38,-0.02 -0.49,0.08 -0.6,-0.11 -1.08,0.14 -0.02,0.01 -0.07,0.03 -0.08,0.04 -0.08,0.04 -0.04,-0.02 -0.08,0.07 -0.1,0 -0.02,0 -0.09,0.03 -0.17,0.06 -0.1,-0.1 -0.51,0.22 -0.05,0.05 -0.04,0.05 -0.13,0.08 -0.03,0.01 -0.1,0.02 -0.15,0.04 -0.09,0.04 -0.05,0.04 -0.12,0.08l-0.46 0.34c-0.09,0.07 -0.11,0.13 -0.19,0.21 -0.07,0.06 -0.15,0.13 -0.22,0.19 0.03,0.35 0.04,0.14 0.13,0.35 0.03,0.13 -0.23,0.19 0.2,0.35 0.13,0.05 0.05,0.02 0.12,0.1 0.08,0.27 0.31,0.31 0.5,0.43 0.33,0.21 0.24,-0.04 0.66,0.2 0.26,0.15 1.51,0.21 1.66,0.14 0.08,-0.03 0.12,-0.08 0.19,-0.11 0.08,-0.02 0.18,-0.01 0.27,-0.04 0.32,-0.09 0.43,0 0.52,-0.12 0.09,-0.03 0.09,-0.07 0.17,-0.12 0.19,-0.1 0.49,-0.24 0.68,-0.3l0.52 -0.13c0.2,-0.06 0.35,-0.06 0.56,-0.08 0.1,-0.01 0.18,0 0.28,0l0.7 -0.07c0.18,0 0.35,0.01 0.51,-0.02 0.23,-0.04 0.23,-0.05 0.47,-0.03 0.3,0.03 0.76,-0.03 1,0.08 0.22,0.1 0.18,0.07 0.45,0.08 0.14,0 0.89,0.04 1,0.08 0.2,0.09 0.17,0.11 0.44,0.09 0.32,-0.03 0.53,0.01 0.68,-0.12 0.11,-0.1 0.24,-0.05 0.39,-0.42 0.11,-0.27 0.01,-1.19 -0.03,-1.46 -0.06,-0.35 -0.05,-0.19 0.15,-0.59 0.04,-0.08 0.06,-0.09 0.1,-0.18 0.12,-0.28 0,-0.12 0.24,-0.56 0.15,-0.29 0.29,-0.1 0.46,-0.89 0.03,-0.13 0.09,-0.27 0.11,-0.43 0.02,-0.19 0.02,-0.3 0.01,-0.48 0,-0.17 0.06,-0.29 0.05,-0.5 -0.01,-0.18 -0.03,-0.3 -0.03,-0.51 0,-0.38 0.09,-0.62 0.06,-1 -0.02,-0.3 -0.07,-0.71 -0.07,-0.95 -0.01,-0.15 -0.04,-0.91 -0.08,-0.98 -0.01,-0.23 -0.05,-0.48 -0.1,-0.75 -0.02,-0.06 -0.04,-0.11 -0.05,-0.17 -0.02,-0.08 0,-0.13 -0.02,-0.21 -0.02,-0.09 -0.05,-0.04 -0.05,-0.15 0,-0.1 0.01,-0.11 -0.06,-0.18 -0.01,-0.06 -0.03,-0.08 -0.05,-0.15 0.08,-0.01 0.08,-0.02 0.15,-0.03l-0.17 -0.14 0.08 -0.04c-0.06,-0.02 -0.05,-0.03 -0.11,-0.04 0,0 0.01,-0.07 0.01,-0.08 -0.07,-0.08 -0.16,-0.16 -0.19,-0.25l-0.06 -0.19c-0.06,-0.08 -0.05,-0.09 -0.1,-0.19 -0.04,-0.09 -0.14,-0.21 -0.14,-0.35 -0.01,-0.13 0.02,-0.01 -0.07,-0.18 -0.02,-0.03 -0.03,-0.05 -0.04,-0.1 -0.01,-0.06 0.02,-0.08 0.02,-0.08 -0.04,-0.09 -0.04,-0.03 -0.07,-0.11 -0.02,-0.05 -0.02,-0.08 -0.03,-0.13 -0.04,-0.11 -0.09,-0.06 -0.14,-0.2 0,-0.01 0,-0.01 0.01,-0.01l0.05 -0.02c-0.07,-0.12 -0.1,-0.35 -0.22,-0.41 -0.02,-0.09 -0.09,-0.18 -0.07,-0.28 0.02,-0.15 0.02,-0.06 -0.06,-0.24l0.07 -0.03 -0.13 -0.11c0.01,-0.1 0,-0.05 0.08,-0.09 -0.08,-0.05 -0.11,-0.06 -0.17,-0.13 -0.08,-0.11 -0.04,-0.12 -0.01,-0.22 -0.1,-0.05 -0.1,-0.08 -0.13,-0.21 -0.02,-0.08 -0.06,-0.12 -0.1,-0.22 0.03,-0.02 -0.01,0 0.04,-0.01l0.04 -0.01c0,0 0.01,0 0.01,0 -0.09,-0.07 -0.05,-0.05 -0.11,-0.14l-0.13 -0.14c-0.01,-0.09 -0.03,-0.06 -0.06,-0.15 0.1,0.03 0.13,0.08 0.22,0.12 -0.12,-0.07 -0.22,-0.21 -0.32,-0.3l0.09 -0.01c-0.19,-0.12 -0.22,-0.2 -0.35,-0.36 -0.1,-0.13 0.05,0.08 -0.02,-0.03 -0.01,-0.01 -0.01,-0.03 -0.04,-0.06 0.02,-0.02 -0.06,-0.04 0.08,-0.04 -0.19,-0.06 -0.26,-0.48 -0.38,-0.65 -0.15,-0.21 -0.08,-0.18 -0.14,-0.28 -0.07,-0.11 -0.15,-0.2 -0.21,-0.33 0.01,0 0.02,0 0.02,0.01 0.01,0.01 0.02,0.01 0.02,0.01l0.13 0.07c-0.13,-0.07 -0.25,-0.29 -0.38,-0.36 0.01,0 0.01,-0.02 0.02,-0.01 0,0 0.07,-0.04 -0.01,-0.11 -0.42,-0.43 -0.18,-0.24 -0.28,-0.38 -0.11,-0.16 -0.18,-0.28 -0.31,-0.42l-0.3 -0.45c-0.03,-0.05 -0.05,-0.1 -0.08,-0.15 -0.02,-0.02 -0.03,-0.04 -0.05,-0.07 -0.12,-0.14 -0.05,-0.05 -0.13,-0.24 -0.05,-0.1 -0.1,-0.14 -0.15,-0.22l-0.11 -0.15c-0.07,-0.07 -0.03,0.01 -0.06,-0.1 0.09,0.02 0.1,0.04 0.17,0.1 0.01,0.01 0.01,0.01 0.01,0.02l0.11 0.11c-0.21,-0.43 -0.05,-0.17 -0.28,-0.48 -0.23,-0.3 -0.16,-0.3 -0.47,-0.6 -0.19,-0.18 0.13,-0.08 -0.25,-0.32l-0.15 -0.13c0,0 -0.05,-0.06 -0.05,-0.06 -0.05,-0.07 -0.01,0.02 -0.04,-0.07 0.12,-0.04 0.06,0 0.13,0.06 -0.02,-0.07 -0.05,-0.1 -0.09,-0.16 -0.03,-0.05 -0.06,-0.11 -0.09,-0.16 -0.03,-0.04 -0.08,-0.08 -0.13,-0.13l-0.21 -0.22c-0.18,-0.35 -0.25,-0.59 -0.4,-0.92 -0.06,-0.13 -0.16,-0.21 -0.24,-0.32l-0.21 -0.26c-0.05,-0.05 -0.07,-0.05 -0.12,-0.13 -0.02,-0.05 -0.12,-0.13 -0.11,-0.16 0,0 0,-0.01 0,-0.01 0,-0.02 0.07,0.05 -0.01,-0.04 -0.06,-0.06 0,0 -0.02,-0.01 -0.07,-0.01 -0.06,-0.04 -0.08,-0.09 -0.03,-0.11 -0.15,-0.22 -0.23,-0.3l-0.06 -0.05c-0.19,-0.2 -0.41,-0.35 -0.61,-0.53l-0.37 -0.36c0,0 -0.01,0 -0.01,-0.01l-0.05 -0.12 -0.11 0.04c0.03,-0.14 0.02,-0.02 0.07,-0.11 -0.04,-0.03 -0.06,-0.05 -0.1,-0.1 -0.06,-0.09 0.04,-0.06 -0.14,-0.2 -0.08,-0.05 -0.08,-0.03 -0.1,-0.11 0.14,0.02 0,0.02 0.14,0.07 -0.05,-0.04 -0.09,-0.21 -0.21,-0.3 -0.08,-0.07 -0.01,-0.01 -0.06,-0.08l-0.1 -0.13c-0.09,-0.18 -0.27,-0.22 -0.36,-0.37 -0.05,-0.08 -0.05,-0.11 -0.13,-0.12 0.03,-0.11 0.07,-0.03 -0.03,-0.16l-0.22 -0.23c-0.13,-0.11 0.01,-0.05 -0.1,-0.15 -0.16,-0.14 -0.53,-0.64 -0.72,-0.66 0,-0.01 -0.02,-0.03 -0.03,-0.03 0,-0.01 0,-0.01 0,-0.02l-0.12 -0.17c-0.05,-0.06 -0.03,-0.04 -0.1,-0.07 0.03,-0.08 0,-0.01 0.04,-0.09 0.03,-0.06 0.01,0.03 0.03,-0.08 -0.15,-0.14 -0.22,-0.15 -0.32,-0.37 -0.04,-0.09 -0.05,-0.07 -0.13,-0.11l0.01 -0.07c-0.41,-0.2 -0.32,-0.33 -0.52,-0.58 -0.07,-0.08 -0.02,-0.06 -0.13,-0.16l0.08 0c-0.02,-0.1 -0.04,-0.09 -0.09,-0.15 -0.14,-0.18 0.14,-0.12 -0.31,-0.45 0.08,-0.04 0.03,0.05 0.06,-0.05l-0.24 -0.25c-0.1,-0.09 -0.03,-0.06 -0.1,-0.13 -0.07,-0.09 -0.33,-0.26 -0.4,-0.32 -0.11,-0.1 -0.02,-0.14 -0.23,-0.22 -0.04,-0.01 -0.07,-0.02 -0.1,-0.04l-0.19 -0.11c-0.14,-0.14 -0.2,-0.18 -0.33,-0.3 -0.12,-0.1 -0.22,-0.21 -0.27,-0.38 -0.09,-0.42 -0.27,-0.69 -0.32,-1.23 -0.02,-0.11 0.02,-0.19 0.01,-0.33 -0.01,-0.1 -0.04,-0.25 -0.06,-0.34 -0.03,-0.14 -0.01,-0.23 -0.03,-0.37 0,-0.06 0,-0.13 -0.01,-0.18 -0.01,-0.13 -0.01,-0.05 -0.07,-0.14 0.05,-0.13 0.03,0.09 0.05,-0.07 0,0 -0.01,-0.13 -0.01,-0.14 -0.04,-0.36 0,-0.11 0,-0.3 0,-0.1 -0.03,-0.06 0,-0.16 0.02,-0.13 -0.03,-0.16 0.02,-0.22 0.03,-0.04 0.04,-0.01 0.11,-0.03 -0.03,-0.11 0.01,-0.02 -0.07,-0.11 -0.07,-0.07 -0.03,0 -0.07,-0.12 0,-0.02 -0.01,-0.04 -0.01,-0.05 0,-0.01 -0.01,-0.02 -0.01,-0.02l-0.01 -0.06c-0.02,-0.04 -0.04,-0.09 -0.06,-0.12 0.1,-0.06 0.01,0.04 0.09,0 -0.05,-0.35 -0.07,-0.22 -0.11,-0.42l0.13 0.06c-0.04,-0.24 0.03,-0.34 -0.08,-0.39 -0.01,0 -0.01,0 -0.01,0 0.01,-0.13 0.03,-0.02 -0.01,-0.14 0.03,-0.01 0.04,0.02 0.08,0 -0.01,-0.46 0.12,-0.4 -0.01,-0.61 -0.04,-0.05 -0.01,-0.1 -0.01,-0.1 0.03,-0.04 0.04,0.07 0.03,-0.09 0,-0.09 -0.06,-0.16 -0.07,-0.21 0,-0.08 0.05,-0.08 0,-0.21 -0.11,-0.27 0.02,-0.14 -0.05,-0.28 -0.04,-0.06 -0.03,-0.05 -0.09,-0.08 0.04,-0.04 0.05,-0.03 0.07,-0.08 -0.09,-0.27 -0.08,-0.56 -0.17,-0.64 0.01,-0.18 -0.24,-0.54 -0.17,-0.68 0.01,-0.03 0.02,0.05 0.01,-0.03 0,-0.05 -0.03,-0.05 -0.05,-0.1 -0.02,-0.07 0.01,-0.01 0.03,-0.08 -0.08,-0.11 -0.19,-0.27 -0.23,-0.37 -0.02,-0.06 -0.05,-0.06 -0.05,-0.14l-0.01 -0.05c-0.01,-0.06 0.05,-0.11 -0.09,-0.31 -0.04,-0.05 -0.06,-0.09 -0.07,-0.15 0.04,-0.24 -0.02,-0.11 0.13,-0.27 -0.03,-0.12 -0.03,0.01 -0.03,-0.11 0.07,-0.01 0.16,-0.06 0.19,-0.11 0.07,-0.12 -0.05,-0.06 0.08,-0.17 0.15,-0.12 0.02,-0.05 0.1,-0.16 0.04,-0.06 0.07,-0.03 0.09,-0.13 0,0 0.01,-0.02 0.01,-0.03l0 -0.03c0.22,-0.09 0.23,-0.2 0.38,-0.45 0.07,-0.1 0.09,-0.09 0.11,-0.17 0.14,-0.09 0.2,-0.25 0.28,-0.38 0.1,-0.14 0.18,-0.19 0.26,-0.42 0.04,-0.13 0.09,-0.17 0.17,-0.27 0.02,-0.03 0.02,-0.03 0.04,-0.06 0.04,-0.05 0,0 0.05,-0.06 0.03,-0.07 0.04,-0.1 0.07,-0.16 0.03,-0.06 0,0 0.03,-0.06 0.1,-0.17 0.12,-0.41 0.14,-0.61 0.02,-0.09 0.02,-0.09 -0.04,-0.15 -0.06,-0.06 -0.02,0.04 -0.06,-0.07 0,-0.02 -0.01,-0.08 -0.01,-0.1 -0.29,-0.05 0.02,-0.27 -0.6,-0.17 -0.03,-0.03 -0.01,0 -0.03,-0.05 0.06,-0.12 0.06,-0.17 0.09,-0.3 0.04,-0.2 0.31,-0.57 0.33,-0.85 0.01,-0.3 -0.04,0 0.03,-0.33 0.02,-0.12 0.04,-0.23 0.05,-0.35 0.02,-0.27 -0.01,-0.44 0,-0.51 0.01,-0.11 0.05,-0.06 -0.02,-0.15 -0.04,-0.02 -0.08,-0.01 -0.13,-0.1 -0.12,-0.23 0.04,-0.12 -0.14,-0.2 -0.25,-0.11 0.04,-0.07 -0.27,-0.06 -0.21,0 -0.17,-0.11 -0.32,-0.07 -0.11,0.02 -0.08,0 -0.17,0.06 -0.13,0.08 -0.09,0.03 -0.19,0.07 -0.07,0.02 -0.1,0.06 -0.15,0.09 -0.08,0.04 -0.09,0.02 -0.18,0.08 -0.04,0.02 -0.1,0.09 -0.12,0.09 -0.09,0.04 0.02,-0.07 -0.15,0.07 -0.07,0.06 -0.09,0.04 -0.17,0.07 -0.08,0.02 -0.1,0.06 -0.15,0.11 -0.09,0.08 -0.02,-0.01 -0.21,0.14 -0.07,0.06 -0.19,0.16 -0.27,0.17l-0.15 0.01c-0.01,0.05 -0.05,0.12 -0.07,0.14l-0.06 0.03c0,0 -0.01,0 -0.01,0.01l-0.05 0.03c-0.01,0 -0.01,0.01 -0.02,0.01 0,0 -0.01,0 -0.01,0.01 -0.07,0.03 -0.05,0 -0.11,0.07 -0.06,0.07 -0.04,0.1 -0.12,0.02 -0.06,0.29 -0.12,-0.01 -0.3,0.36 -0.11,0 0.08,0.06 -0.03,-0.02 -0.04,-0.03 0.03,0.01 -0.06,-0.05 -0.05,0.33 -0.08,0.08 -0.19,0.22 -0.02,0.02 -0.03,0.05 -0.03,0.05 -0.11,0.13 -0.05,-0.02 -0.16,0.15l-0.1 0.18c-0.02,0.03 -0.04,0.06 -0.06,0.1 -0.13,0.04 0,-0.1 -0.1,0.03 -0.04,0.05 -0.08,0.09 -0.13,0.12 0,0 -0.02,0.01 -0.02,0.01 -0.05,0.02 -0.02,0.01 -0.05,0.01 -0.24,0.04 -0.1,0.08 -0.19,0.13 0,0.01 -0.01,0 -0.02,0.01l-0.14 0c-0.13,0 -0.04,0.1 -0.22,0.04 -0.09,0.09 -0.07,0.06 -0.13,0.08 -0.2,0.09 0.08,0.11 -0.6,0.03 -0.07,-0.01 -0.16,-0.01 -0.22,-0.02l-0.43 -0.08c-0.1,-0.02 -0.12,0 -0.21,0 -0.14,0.01 -0.31,-0.03 -0.44,-0.04l-0.92 -0.02c-0.2,0 0.02,-0.05 -0.46,0 -0.07,0 -0.14,0.01 -0.21,0.02 -0.23,0.03 -0.15,-0.03 -0.3,0.05l-0.06 0.03c-0.26,0.13 -0.17,0.02 -0.34,0.1 -0.1,0.05 -0.05,0.04 -0.19,0.08 -0.15,0.03 -0.09,0.04 -0.17,0.07 -0.08,0.03 -0.05,-0.01 -0.17,0.05 -0.05,0.03 -0.1,0.05 -0.16,0.07l-0.77 0.24c-0.05,0.03 -0.1,0.08 -0.13,0.12 -0.08,0.08 -0.18,0.23 -0.16,0.35l-0.12 0.13c-0.05,0.07 -0.03,0.07 -0.11,0.11 -0.12,0.07 -0.2,0.11 -0.3,0.18 -0.1,0.07 -0.14,0.14 -0.39,0.3 -0.03,0.02 -0.05,0.03 -0.07,0.05l-0.07 0.06c-0.1,0.02 -0.13,0.08 -0.23,0.14 -0.26,0.15 -0.56,0.22 -0.84,0.32l-1.29 0.24c-0.44,0.09 -0.37,0.07 -0.77,0.2l-0.8 0.18c-0.24,0.06 -1.26,0.44 -1.43,0.53 -0.21,0.11 -0.49,0.23 -0.52,0.46 -0.04,0.4 -0.03,0.93 0.28,1.19 0.06,0.06 0.08,0.05 0.15,0.08 0.06,0.04 0.09,0.08 0.14,0.12 0.19,0.14 0.38,0.33 0.57,0.43 0.05,0.15 0.06,0.08 0.18,0.16 0.1,0.06 0.03,0.13 0.1,0.27 0.05,0.1 0.55,0.6 0.73,0.71 0.12,0.07 0.39,0.24 0.52,0.24 0.01,0.11 -0.01,0.06 0.05,0.13l0.18 0.12c0.02,0.01 0.06,0.03 0.08,0.04 0.05,0.03 0.07,0.05 0.12,0.09 0.01,0 0.05,0.03 0.06,0.03 0.16,0.1 0.09,0.02 0.3,0.17 0.04,0.02 0.01,0 0.05,0.02l0.13 0.07c0.02,0.02 0.01,0.01 0.04,0.04l0.74 0.36c0.02,0.01 0.03,0.01 0.05,0.02 0.18,0.08 0.26,0.17 0.48,0.31 0.08,0.04 0.1,0.07 0.19,0.13 0.08,0.14 0.23,0.15 0.27,0.17 0.07,0.02 0.02,0.02 0.1,0.05 0.45,0.19 0.86,-0.11 1.08,0.04l0.29 0.19c0.06,0.06 0.01,-0.01 0.05,0.09 0.18,0.01 0.16,0.04 0.23,0.16 0.06,0.1 0.13,0.15 0.18,0.22 -0.08,0.11 -0.06,0.11 -0.1,0.27 -0.03,0.12 -0.11,0.14 -0.11,0.27 -0.1,0.09 -0.05,0.18 -0.06,0.33 -0.05,0.13 -0.2,0.03 -0.11,0.34 0.04,0.11 0.06,0.44 0.09,0.52 0.05,0.1 0.11,0.15 0.09,0.3 -0.01,0.06 -0.21,0.62 -0.4,0.79 -0.2,0.16 -0.17,0.08 -0.26,0.13 -0.02,0.53 0.03,0.46 -0.22,0.65l0.11 0.03c-0.07,0.12 -0.11,0.02 -0.01,0.14l-0.1 0c0,0 0.04,0.13 -0.1,0.1 0.09,0.07 0.06,0.05 0.19,0.1 -0.19,0.17 -0.16,0.02 -0.09,0.17l-0.13 -0.01c0.03,0.01 0.04,0.02 0.06,0.05 -0.01,0.12 0.04,0.05 -0.05,0.09 0.1,0.09 0.07,0.08 0.07,0.16 -0.13,-0.01 -0.03,-0.01 -0.07,0.05 -0.11,0.01 -0.07,-0.01 -0.13,0.04l0.07 0.08 -0.08 0.07 0.17 0.03c-0.04,0.11 0.02,0.11 -0.1,0.18l0.12 0.04 -0.06 0.07 0.14 0.02c-0.06,0.21 -0.1,0.23 -0.04,0.34 -0.05,0.08 -0.02,0.04 -0.09,0.09l0.17 0.1 -0.09 0.07 0.11 0.04 -0.09 0.12c0.1,0.04 0.06,-0.01 0.11,0.07l-0.12 0.07c0.02,0.05 0.09,0.06 0.14,0.11 -0.06,0.04 -0.06,0.05 -0.13,0.06l0.1 0.04c0,0.1 0.01,0.1 -0.03,0.17 0.01,0.03 0.07,0.01 0.04,0.28l-0.12 0.04c0,0.45 0.22,1.86 -0.28,2.01 0,0.03 0.02,0.05 0.06,0.09 -0.17,0.2 0.05,0.07 -0.14,0.21 0.04,0.08 -0.02,0.01 0.08,0.07 -0.07,0.06 0.03,0 -0.12,0.04l-0.03 0.36c0.08,0.05 0.04,-0.01 0.08,0.07 -0.09,0.04 -0.08,0.04 -0.13,0.12l0.09 0.03 -0.09 0.03c0.14,0.23 -0.04,0.65 0.08,0.77 -0.13,0.23 -0.41,1.24 -0.29,1.5 -0.1,0.1 0.03,0.21 -0.07,0.31 0.09,0.06 0.04,-0.03 0.09,0.07 -0.08,0.15 -0.1,0.17 0.03,0.35 -0.12,0.12 -0.05,0.11 -0.04,0.16 -0.08,0.06 -0.01,0.03 -0.08,0.1 0.03,0.05 0.29,0.97 0.19,1.06 0.07,0 0.03,-0.01 0.1,-0.01 -0.02,0.15 0,0.01 0.04,0.17l-0.09 0.03c0.09,0.1 0.1,0.2 0.15,0.29 -0.13,0.13 -0.01,0.06 -0.06,0.27 0.08,0.06 0.09,0 0.11,0.13 0.2,0.01 0.19,0.02 0.07,0.13 0.12,0.32 0.14,0.2 0.14,0.61l0.12 -0.03 -0.06 0.12 0.12 0.05c-0.07,0.04 -0.07,0.03 -0.1,0.09l0.25 0c-0.01,0.08 -0.01,0.1 -0.06,0.13l0.17 0.03c-0.08,0.19 -0.05,0.06 -0.11,0.17l0.23 0.05c-0.1,0.06 -0.12,0.06 -0.22,0.11 0.15,0.07 0.34,0.1 0.32,0.29 0.08,0.02 0.11,0.05 0.19,0.08 0.01,0.06 0.01,0.08 0,0.13l0.12 0.01 -0.19 0.16c0.03,0.05 0,0.05 0.01,0.09l0.26 -0.05c-0.03,0.18 0.11,0.24 -0.03,0.34 0.08,0.02 0.13,0.13 0.22,0.16l-0.03 0.14c0.12,-0.07 0.15,-0.03 0.17,-0.02 -0.02,0.14 -0.07,0.04 -0.14,0.17l0.18 -0.05c0.01,0.02 0.01,0.06 0.05,0.12 -0.03,0.08 -0.03,0.08 -0.09,0.12 0.04,0.01 0.03,-0.02 0.09,0.02l-0.02 0.15c0.04,-0.06 0.08,-0.1 0.1,-0.16 0.08,0.07 0.12,0.09 0.23,0.1 -0.03,0.14 -0.07,0.07 0,0.15 0.08,0.1 0.05,0.05 0.02,0.18l0.02 0c0.04,-0.01 0,-0.02 0.04,0l-0.03 0.11c0.07,-0.03 0.03,-0.04 0.11,0 0.02,0.03 -0.01,0.03 -0.05,0.07l0.09 0.01c-0.02,0.06 -0.01,0.04 -0.04,0.09 0.17,0.08 0.24,0.2 0.29,0.25 0.03,0.18 0.01,0.05 0.06,0.12l0.02 0.03c0,0.01 0,0.01 0,0.01 0.03,0.06 0.07,0.08 0.12,0.15l-0.05 0.11c0.06,-0.06 0.02,-0.04 0.1,-0.07 0,0.13 0.07,0.13 -0.01,0.26 -0.05,0.08 -0.11,0.11 -0.13,0.19 0.04,-0.01 0.05,-0.01 0.1,-0.04 0.04,-0.02 0,0.01 0.04,-0.02l0.06 -0.04c0,0 0.01,0 0.02,-0.01 -0.04,0.18 -0.05,0.12 -0.13,0.22 0.04,0.02 0.03,0.02 0.06,0.02l0.05 -0.03c0.09,-0.06 0.03,-0.05 0.15,-0.06 0,0.03 -0.01,0.09 -0.02,0.11 -0.02,0.09 0.01,0.03 -0.05,0.08 0.02,0.06 0.1,0.11 0.02,0.21 0.05,0.03 -0.02,0 0.04,0 0,0 0.01,0 0.01,0l-0.07 0.31 0.15 -0.16c0,0 0.01,-0.01 0.01,-0.01 0.07,0.16 0.02,0.1 -0.03,0.24 -0.05,0.13 0.06,0.03 0.05,0.26l0.1 -0.09c-0.08,0.32 -0.17,0.23 -0.14,0.49 -0.07,0.01 -0.11,0.02 -0.13,0.07 0.1,-0.06 0.09,-0.04 0.23,-0.04 -0.03,0.1 -0.03,0.05 -0.04,0.13 -0.01,0.06 0.01,0.04 -0.02,0.14 0.09,-0.06 0.03,-0.08 0.15,-0.13 -0.03,0.12 -0.09,0.22 -0.16,0.28 0.06,-0.03 0.11,-0.07 0.17,-0.09 0,0.17 -0.06,0.21 -0.11,0.33 0.06,-0.03 0.06,-0.06 0.13,-0.09 -0.02,0.09 -0.03,0.06 -0.02,0.14 0,0.02 0.01,0.05 -0.01,0.15 -0.02,0.08 -0.08,0.21 -0.1,0.32 0.07,-0.09 0.07,-0.15 0.17,-0.2 -0.04,0.3 0.01,0.16 -0.01,0.31 -0.01,0.08 -0.06,0.22 -0.07,0.31 0.07,0.01 -0.03,-0.02 0.04,-0.01l0.07 0.01c-0.05,0.05 -0.08,0.27 -0.09,0.34 -0.01,0.05 -0.04,0.17 0.04,0.21 0,0 0,0 0,0 0.01,0 0.01,0 0.02,0 0.1,0.03 -0.03,-0.04 0.03,0.01 -0.07,0.22 -0.03,0.37 -0.06,0.59 -0.07,0.47 -0.01,0.66 -0.05,0.97 -0.01,0.12 -0.06,0.18 -0.06,0.3 0.01,0.28 -0.04,0.12 -0.08,0.59 -0.06,0.66 -0.14,0.43 -0.2,1.22 -0.02,0.22 -0.06,0.39 -0.09,0.6 -0.01,0.12 -0.02,0.2 -0.02,0.33 0,0.05 0,0.11 -0.02,0.16 -0.02,0.11 -0.01,0.1 -0.09,0.12l-0.34 -0.18c-0.1,-0.02 -0.03,0 -0.09,0.01 -0.13,0.02 -0.09,0.01 -0.2,-0.02 -0.1,0.26 -0.13,0.06 -0.35,0.23 -0.33,0.26 -0.49,0.3 -0.81,0.69 -0.06,0.09 -0.11,0.05 -0.1,0.2 0.1,0.13 0.18,0.05 0.22,0.29 0.04,0.16 0.08,0.3 0.05,0.48 0.12,0.06 -0.11,-0.04 0.06,0.02 0.12,0.04 0.06,0.06 0.13,0.12 0.05,0.05 0.04,0 0.1,0.07l0.03 0.11c0.02,0.07 0.09,0.03 0.17,0.14 0.07,0.1 0.02,0.05 0.14,0.14 0.11,0.08 0.26,0.15 0.39,0.16 0.03,0.13 -0.2,0.51 -0.26,0.62l-0.26 0.45c-0.04,0.07 -0.05,0.08 -0.09,0.16 -0.06,0.14 -0.43,0.38 -0.57,0.43 -0.11,0.03 -0.19,0.04 -0.29,0.07l-0.51 0.18 -0.17 0.19c-0.02,0.02 -0.01,0.01 -0.03,0.04l-0.02 0.02c0,0.01 -0.01,0.01 -0.01,0.02 0,0 -0.01,0.01 -0.01,0.01 -0.23,0.3 -0.25,0.05 -0.42,0.29 -0.26,0.37 0,0.11 -0.4,0.47 -0.16,0.14 -0.17,0.25 -0.31,0.42l-0.13 0.2c-0.07,0.06 -0.11,0.08 -0.21,0.13l0.12 0.14c-0.04,0.16 -0.13,0.16 -0.19,0.27 -0.09,0.15 0.01,0.21 0.18,0.2 -0.04,0.17 0.05,0.24 0.22,0.23 -0.03,0.13 -0.06,0.06 0.04,0.12 0.07,0.04 0.11,0.01 0.05,0.13 0.14,-0.05 0.06,0.08 0.22,0.05 0.17,-0.03 0.13,0 0.15,0.05 0.09,0.19 0.15,0.12 0.36,0.2 0.11,0.04 0.17,-0.02 0.34,0.05 0.05,0.02 0.07,0.02 0.09,0.02 0.05,0.01 0.11,-0.01 0.17,-0.03l0.15 -0.05c0.01,0 0.01,-0.01 0.02,-0.01 0.03,0.09 0.02,0.07 0.11,0.11 0.02,-0.12 0,-0.07 0.08,-0.08 0,0 0.03,0.01 0.05,0.01 0.1,-0.01 0,0 0.07,-0.02 0.11,-0.02 0.12,0.05 0.17,0.09 0.06,-0.08 -0.02,-0.02 0.08,-0.06 0.02,0.02 0.05,0.06 0.07,0.09 0.05,0.05 0.03,0.04 0.1,0.03l0.02 -0.08c0,-0.01 0,-0.01 0.01,-0.02l0.19 0.01c0.06,0.01 0.05,-0.01 0.09,-0.01 0.05,-0.01 0.04,0 0.06,0 0.04,0.01 -0.05,0.04 0.06,0 0.09,-0.03 0.07,-0.04 0.14,-0.08 0.17,-0.08 -0.02,0.07 0.24,-0.11 0.06,-0.05 0.08,-0.04 0.19,-0.07 0.05,-0.01 0.01,-0.01 0.07,0 -0.06,-0.09 0.02,-0.1 0.07,-0.18 0.07,-0.1 0.07,-0.11 0.14,-0.19 0.06,-0.07 0.06,-0.13 0.12,-0.19 0.03,-0.03 0.13,-0.1 0.18,-0.14 0.06,-0.05 0.1,-0.08 0.18,-0.13l0.32 -0.3c0.07,-0.07 0.11,-0.12 0.13,-0.19 0.19,-0.09 0.05,-0.08 0.13,-0.39 0.03,-0.12 0.06,-0.21 0.08,-0.32 0.02,-0.11 0.04,-0.22 0.09,-0.31 0.12,-0.24 0.01,-0.15 0.09,-0.31 0.18,-0.34 0.07,-0.06 0.16,-0.4 0.05,-0.17 0.12,-0.16 0.15,-0.22 0.02,-0.04 0,-0.02 0.01,-0.06l0.07 -0.14c0,0 0.01,-0.01 0.01,-0.01 0.05,-0.07 0.06,-0.13 0.06,-0.22 0.03,-0.01 0.02,0 0.04,0 0.05,0 -0.01,0.02 0.03,0l0 -0.12 0.11 -0.03 -0.01 -0.13c0.07,-0.01 0.06,0.01 0.09,0 -0.04,-0.17 -0.02,-0.26 0.1,-0.32 0.07,-0.03 0.07,-0.04 0.13,-0.01l0.02 -0.14c0.08,0.03 0.05,0.02 0.1,0.07 0.01,-0.13 0.02,-0.1 0.12,-0.16 0.08,0.03 0.02,-0.03 0.06,0.07 0.01,-0.11 0.01,-0.06 0.04,-0.09l0.1 0.05c-0.04,-0.19 0.03,-0.1 0.01,-0.21 0.08,0.02 0.02,0 0.08,0.05 0,-0.11 0.02,-0.04 0.01,-0.11 -0.01,-0.03 -0.02,-0.07 -0.02,-0.14 0.05,-0.03 0.05,-0.03 0.1,-0.08 0.11,-0.11 0.02,-0.08 0.13,-0.24 0.08,-0.11 0.12,-0.31 0.15,-0.39l0.04 -0.18c0,-0.05 0.01,0 -0.01,-0.07 -0.06,-0.18 0.01,-0.09 0.01,-0.29 0,-0.17 -0.01,-0.22 0.02,-0.38 0.02,-0.12 0.07,-0.2 0.06,-0.32 -0.01,-0.1 0.07,-0.39 0.08,-0.4 0,0 0,-0.01 0,-0.01 0.01,0 0.01,-0.01 0.01,-0.01 0.07,-0.08 0.03,-0.05 0.06,-0.12 0.07,-0.13 0.24,-0.19 0.34,-0.41 0.18,-0.36 0.26,-0.31 0.23,-0.51 -0.06,-0.3 0.12,-0.23 0.06,-0.62 -0.03,-0.16 -0.06,-0.16 -0.05,-0.36 0.08,-0.1 0.15,-0.29 0.15,-0.41l0.04 -0.24c0,0 0,0 0,-0.01l0.09 -0.2c0.03,-0.08 0.03,-0.09 0.04,-0.18 0.03,-0.15 0.03,-0.56 0.09,-0.77 0.02,-0.08 0.06,-0.13 0.08,-0.2l0.07 -0.21c0.03,-0.11 -0.01,-0.13 0.04,-0.24 0.04,-0.08 0.07,-0.1 0.11,-0.17 0.07,-0.11 0.02,-0.1 0.01,-0.2 -0.01,-0.09 0.04,-0.11 0.08,-0.18 0.05,-0.08 0.04,-0.15 0.08,-0.22 0.09,-0.07 0.13,0.04 0.18,0.05 0.12,0.04 -0.08,0 0.17,0.01 0.08,0.13 0.05,0.06 0.13,0.14 0.25,0.23 0.16,0.01 0.4,-0.05 0.08,0.14 0,0.07 0.14,0.17 0.3,0.21 0.17,0.06 0.3,0.14 0.09,0.06 -0.02,0.03 0.08,0.04 0.16,0.04 0.08,0.05 0.18,0.14 0.29,-0.08 0.13,-0.03 0.28,-0.02 0.01,0 0.05,-0.01 0.11,0 0.1,0 0.22,0.06 0.28,0.12 0.12,0.1 -0.03,0.08 0.24,0.16l0.13 0.05c0.02,0.01 0.02,0.01 0.05,0.01 0.07,-0.01 -0.02,-0.03 0.09,-0.01 0.12,0.02 0,0.03 0.1,0.03 0.12,0 0.05,-0.07 0.19,-0.08l0.05 0.17c0.08,-0.03 0.04,-0.01 0.1,-0.02l0.11 -0.02c0.12,0 0.02,0.07 0.22,0 0.07,-0.03 0.07,-0.06 0.23,-0.01 0.34,0.1 0.18,0.19 0.08,0.45 -0.09,0.21 -0.17,0.15 -0.27,0.23 -0.16,0.01 -0.46,0.12 -0.65,0.24l-0.08 0.04c-0.19,0.13 -0.17,-0.01 -0.34,0.12 -0.03,0.02 -0.21,0.13 -0.23,0.14 -0.1,0.11 0.06,-0.03 -0.03,0.07 -0.06,0.08 -0.26,0.1 -0.37,0.19 -0.06,0.05 -0.03,0.06 -0.05,0.1l-0.12 0.17c-0.01,0 -0.01,0.01 -0.01,0.01 -0.13,0.19 -0.27,0.46 -0.26,0.69 0,0.1 0.08,0.15 0.1,0.25 0.06,0.2 0.16,0.39 0.3,0.45 0.08,0.04 0.1,0.02 0.15,0.05 0.04,0.02 0.01,0.04 0.11,0.07 0.06,0.02 0.1,0.01 0.15,0.04 0.08,0.04 0.03,0.16 0.42,0.05 0.25,-0.07 0.26,-0.27 0.46,-0.28 0.21,-0.01 -0.02,0.03 0.28,-0.05 0.18,-0.05 0.36,-0.14 0.56,-0.18 0.25,-0.04 0.51,0 0.7,0.01 0.25,0.02 0.39,-0.04 0.62,0.04 0.15,0.06 0.32,0.03 0.38,0.04 0,0 0.01,0.01 0.02,0.01l0.1 0.06c0.18,0.07 0.09,-0.05 0.27,0.13 0.1,0.11 0.15,0.03 0.3,0.26 0.14,0.21 0.17,0.1 0.3,0.21l0.14 0.08c-0.02,0.08 -0.03,0.07 -0.04,0.16 0.13,0.02 0.2,0.06 0.3,0.1 0.13,0.06 0.04,0.05 0.15,0.12 0.06,0.05 0.01,-0.05 0.08,0.06 0.05,0.09 0.01,0.14 -0.02,0.2 0.3,0.1 0.3,0.31 0.54,0.53 0.01,0.01 0.01,0.01 0.02,0.01l0.04 0.05c0.16,0.18 0.29,0.48 0.24,0.72 -0.06,-0.02 0.02,-0.04 -0.17,0 -0.25,0.06 -0.17,0.15 -0.58,0.3 -0.14,0.05 -0.07,0.06 -0.39,0.16 -0.13,0.04 -0.21,0.2 -0.26,0.32 -0.11,0.22 -0.37,0.42 -0.45,0.7 -0.1,0.39 -0.11,0.3 0.03,0.57 0.03,0.07 0.09,0.13 0.12,0.17z"/>
   <path class="fil1" d="M25.76 36.27c-1.93,-0.45 -4.74,0.56 -4.53,3.86 0.5,-1.28 0.53,-3.44 4.53,-3.86z"/>
   <path class="fil1" d="M17.49 3.24c0.06,-0.12 0.25,-0.13 0.28,-0.26 0.04,-0.2 0.31,-0.57 0.33,-0.85 0.01,-0.25 0.06,-0.43 0.08,-0.67 0.02,-0.28 -0.01,-0.45 0,-0.52 0.21,-0.14 -0.59,-0.91 -1.27,-0.32 -1.42,0.7 -4.06,3.8 -4.71,5.17 0.3,0.12 0.2,0.08 0.39,0.17 -0.01,0.25 -0.13,0.75 0.12,0.29 0.12,0.03 0.21,0.43 0.13,0.49 -0.18,0.14 -0.06,0.13 -0.17,0.25 0.12,0.29 0,0.12 0.28,0.17 0.15,-0.16 0.33,-0.2 0.46,-0.02 -0.1,0.06 -0.07,0.1 -0.21,0.18 0.07,0.58 0.99,-0.19 1.12,-0.07 0.02,0.39 0.02,0.13 -0.08,0.35 0.03,0.05 0.04,0.05 0.09,0.09 -0.05,0.03 -0.43,0.23 -0.47,0.23 0.12,0.34 0.65,-0.09 0.77,-0.35 0.05,-0.12 0.62,-0.58 0.76,-0.64l0.03 -0.21c0.21,-0.49 1.23,-1.85 1.62,-2.58 0.03,-0.05 0.02,-0.04 0.05,-0.11 0.06,-0.1 -0.01,-0.01 0.07,-0.09 0.18,-0.17 -0.01,-0.19 0.25,-0.41l0.06 -0.05c0.13,-0.15 -0.13,-0.21 0.02,-0.24z"/>
   <path class="fil1" d="M17.79 3.3c-0.05,0.02 -0.17,0.05 -0.24,0.22 -0.04,0.11 -0.08,0.09 -0.14,0.18l-0.18 0.33c-0.18,0.26 -0.02,0.1 -0.11,0.27l-0.25 0.4 -0.08 0.11c0,0.01 -0.01,0.01 -0.01,0.02 -0.04,0.1 -0.01,0.17 -0.01,0.27 -0.09,0.05 -0.04,0.05 -0.16,0.05 0.05,0.21 -0.03,0.19 0,0.31 0,0.01 0.01,0.03 0.01,0.02 0,0 0.01,0.02 0.01,0.02 -0.19,0.03 -0.08,0.13 -0.12,0.26 -0.03,0.1 -0.11,0.16 -0.07,0.32l-0.21 0.13 0.06 0.08c-0.08,0.04 -0.05,0.02 -0.11,0.09 0,0.01 0.01,0.02 0.01,0.03l0.03 0.05c0,0 0,-0.01 0,-0.01 -0.08,0.14 -0.09,-0.05 -0.07,0.19l-0.09 0.07c0.01,0.09 0.01,0.14 0.06,0.22l-0.14 0.04c0.03,0.13 0.08,0.1 0.04,0.22 0,0 0,0.01 0,0.01l-0.04 0.06c-0.06,0.06 -0.14,0.26 -0.1,0.3 -0.1,0.01 -0.18,0.07 -0.18,0.16 0,0.04 0.01,-0.02 0.03,0.08 -0.09,-0.01 -0.03,-0.01 -0.11,-0.04l-0.01 0.14c0,0 -0.01,0.01 -0.01,0.01l0.11 0.16c0.08,-0.03 0.02,-0.02 0.1,-0.06 0.06,-0.03 0.04,0.04 0.06,-0.04 0.08,-0.16 -0.04,-0.3 0.16,-0.33 0.19,-0.04 0.11,-0.03 0.24,-0.13 0,-0.01 0.01,-0.01 0.01,-0.01l0.04 -0.03c0.04,-0.24 -0.02,-0.1 0.13,-0.27 -0.03,-0.12 -0.03,0.02 -0.03,-0.1 0.07,-0.02 0.16,-0.07 0.19,-0.12 0.07,-0.11 -0.05,-0.06 0.08,-0.17 0.15,-0.11 0.02,-0.04 0.1,-0.16 0.04,-0.05 0.07,-0.03 0.09,-0.12 0,-0.01 0.01,-0.03 0.01,-0.03l0 -0.03c0.22,-0.1 0.23,-0.2 0.38,-0.46 0.07,-0.09 0.09,-0.09 0.11,-0.17 0.14,-0.09 0.2,-0.25 0.28,-0.37 0.1,-0.15 0.18,-0.2 0.26,-0.43 0.04,-0.13 0.09,-0.16 0.17,-0.27 0.02,-0.03 0.02,-0.03 0.04,-0.05 0.04,-0.06 0,0 0.05,-0.07 0.03,-0.06 0.04,-0.09 0.07,-0.16 0.03,-0.06 0,0 0.03,-0.06 0.1,-0.16 0.12,-0.41 0.15,-0.61 0.01,-0.09 0.01,-0.09 -0.05,-0.15 -0.06,-0.06 -0.03,-0.05 -0.06,-0.07 0,-0.02 0.05,-0.1 0.05,-0.12 -0.3,-0.04 0.12,-0.29 -0.5,-0.19l-0.08 0.01z"/>
   <path class="fil1" d="M17.75 16.58c0.06,0.09 0,0.03 0.09,0.06l-0.01 -0.19c-0.09,-0.42 -0.27,-0.68 -0.32,-1.22 -0.02,-0.12 0.02,-0.2 0.01,-0.34 -0.01,-0.1 -0.04,-0.25 -0.06,-0.34 -0.03,-0.14 -0.01,-0.23 -0.03,-0.37 0,-0.06 0,-0.12 0,-0.18 -0.02,-0.13 -0.02,-0.04 -0.08,-0.14 0.05,-0.13 0.03,0.09 0.05,-0.07 0,0 -0.01,-0.13 -0.01,-0.14 -0.04,-0.36 0,-0.1 0,-0.3 0,-0.1 -0.03,-0.06 0,-0.16 0.02,-0.13 -0.03,-0.16 0.02,-0.21 0.03,-0.04 0.04,-0.02 0.11,-0.04 -0.03,-0.11 0.01,-0.02 -0.07,-0.11 -0.07,-0.07 -0.03,0 -0.07,-0.12 0,-0.02 -0.01,-0.04 -0.01,-0.05 0,-0.01 -0.01,-0.01 -0.01,-0.02l-0.01 -0.06c-0.02,-0.04 -0.04,-0.09 -0.06,-0.12 0.1,-0.06 0.01,0.04 0.09,0 -0.05,-0.35 -0.07,-0.22 -0.11,-0.41l0.13 0.05c-0.04,-0.23 0.03,-0.34 -0.08,-0.38 -0.01,0 -0.01,0 -0.01,-0.01 0.01,-0.12 0.03,-0.02 -0.01,-0.14 0.03,-0.01 0.04,0.02 0.08,0 -0.01,-0.46 0.12,-0.4 -0.01,-0.61 -0.04,-0.05 -0.01,-0.1 -0.01,-0.1 0.03,-0.04 0.04,0.07 0.03,-0.09 0,-0.09 -0.06,-0.16 -0.07,-0.2 0,-0.08 0.05,-0.09 0,-0.22 -0.11,-0.27 0.02,-0.14 -0.05,-0.27 -0.04,-0.07 -0.03,-0.06 -0.09,-0.09 0.04,-0.04 0.05,-0.03 0.07,-0.07 -0.09,-0.28 -0.08,-0.57 -0.17,-0.65l-0.07 0.08c0,0 -0.01,0 -0.01,0.01l0.01 0.27c-0.02,0.18 -0.07,0.36 0.04,0.52 -0.06,0.07 -0.07,-0.01 -0.07,0.11 0,0.06 0.1,0.23 0.1,0.4 0.02,0.28 0.04,0.34 -0.05,0.54 -0.05,0.13 0.02,0.51 -0.01,0.65 -0.02,0.07 0.01,0.13 -0.03,0.2 -0.01,0 -0.08,0.17 -0.27,0.13l0 0.22c-0.07,-0.03 -0.1,0 -0.13,-0.04 -0.06,-0.11 0.02,0.06 -0.01,-0.03 -0.01,-0.06 0.01,-0.09 -0.07,-0.12 -0.06,0.07 -0.12,0.29 -0.12,0.38 0.01,0.17 0,0.31 -0.09,0.44 -0.02,-0.05 -0.03,-0.11 -0.07,-0.14 -0.03,-0.02 -0.02,0.03 -0.03,-0.02 0,-0.01 -0.01,-0.01 -0.02,-0.01 0.02,-0.06 0.02,-0.05 0.03,-0.12 -0.09,0.04 -0.01,0.04 -0.09,0.07 -0.01,-0.1 -0.01,-0.09 0.02,-0.16 -0.12,0.05 -0.12,0.35 -0.13,0.46 0,0.01 0,0.01 0,0.02 0,0.11 0.02,0.1 0.04,0.12l0.02 0.03c0,0.02 -0.04,0.11 -0.05,0.11l-0.1 0.08 0.03 -0.16c-0.12,0.03 -0.12,0.06 -0.19,-0.09l-0.04 -0.1c-0.01,0.01 -0.04,0.02 -0.04,0.02l-0.08 0.02c-0.02,0.13 -0.05,0.16 -0.03,0.3 0.02,0.11 0.03,0.19 -0.11,0.22 -0.01,-0.04 -0.01,-0.06 -0.01,-0.1 -0.01,-0.02 -0.01,-0.04 -0.02,-0.06l-0.1 0.19c-0.05,0.08 -0.02,0.15 -0.08,0.21l-0.02 0.01c-0.07,0.07 -0.03,0.14 -0.16,0.16 -0.13,0.02 -0.07,-0.11 -0.12,0.09 -0.03,0.13 -0.04,0.05 0.05,0.15 -0.06,0.02 -0.02,0.02 -0.07,0.08l-0.23 0.39c-0.03,0.09 0,0.09 -0.07,0.15 0.05,0.04 0.05,0.04 0.1,0.02l0.2 -0.12c0.07,-0.07 0.11,-0.14 0.21,-0.16 -0.06,0.17 -0.23,0.25 -0.21,0.45 0.06,-0.08 0.05,-0.13 0.11,-0.18 0.06,-0.04 0.05,-0.01 0.11,-0.06l0.25 -0.17c0.07,-0.08 -0.01,0.04 0.02,-0.04 0.03,-0.09 -0.05,-0.03 0.05,-0.09 0,0.11 -0.04,0.16 -0.02,0.26 0.03,0.16 -0.05,0.07 -0.05,0.21 0.07,-0.08 0.1,-0.2 0.21,-0.23 -0.05,0.14 -0.08,0.19 0.08,0.16l0.01 0.14 0.07 -0.1 -0.02 0.22c0.09,-0.1 0.11,-0.09 0.22,-0.17 -0.05,-0.17 0.02,-0.11 0.06,-0.23 0.01,-0.03 0,-0.01 0.02,-0.06 0.03,-0.04 -0.01,-0.02 0.07,-0.06 0,0.01 0,0.01 0.01,0.02 0.02,0.06 0.03,-0.02 0.01,0.13 0,0.07 -0.01,0.07 -0.04,0.11 0.04,0.02 0.02,0.02 0.07,0.02 -0.05,-0.08 0,-0.11 0.05,-0.14 0.05,0.17 -0.06,0.22 -0.05,0.43 0,0.25 -0.07,0.33 -0.03,0.42 0.07,-0.05 0.08,-0.18 0.2,-0.2 0.04,0.1 0.02,0.05 0,0.15 0.04,0.02 0.05,0.01 0.11,-0.01 0,0.1 -0.01,0.09 0.04,0.16 0.07,-0.07 0.03,-0.02 0.02,-0.15l0.1 0.02c0,0 0.01,0 0.01,0l0.1 -0.03 0.07 0.07c0.12,0.12 0.02,0.02 0.13,0.05 -0.01,0.06 -0.02,0.05 -0.04,0.08 -0.04,0.07 -0.02,0.16 -0.05,0.24 0.16,0.01 0.09,-0.16 0.32,-0.2 0.04,0.1 0,0.04 0.03,0.14 0.08,-0.07 0.07,-0.04 0.09,-0.11l0.01 -0.04c0.23,0.11 0.11,0.28 0.19,0.46 0.07,-0.03 0.05,0 0.01,-0.23 0.06,0.07 0.07,0.09 0.09,0.2 0.01,0.06 0,0.18 0.04,0.21 0.06,0.04 -0.02,0.02 0.02,-0.02l0.05 -0.01c0,0 0.01,-0.01 0.01,-0.01 0.02,0 0.03,-0.01 0.03,-0.02l0.03 0.1z"/>
   <path class="fil1" d="M6.09 22.97c0.03,-0.04 0.1,-0.07 0.14,-0.11 0.55,-1.1 1.92,-2.1 2.5,-1.86 -0.02,-0.12 -0.23,-0.43 -0.31,-0.49 0.09,-0.09 0.14,-0.19 0.07,-0.29 -0.66,-0.15 -0.59,-0.23 -0.5,-0.72 -0.06,-0.04 -1.63,-0.63 -0.03,-0.54 -0.02,-0.11 -0.05,-0.16 -0.13,-0.23 -0.1,0.01 -0.19,0.03 -0.28,0.04 -0.88,0.16 -0.24,1.14 -0.74,-0.09 -0.05,-0.14 -0.11,-0.15 -0.15,-0.18l-0.11 0.01 0.09 0.07c-0.06,0.04 -0.07,0.06 -0.14,0.06l0.1 0.05c0,0.09 0.01,0.1 -0.03,0.16 0.01,0.03 0.08,0.02 0.04,0.28l-0.11 0.04c0,0.24 0.01,0.19 0.03,0.43 -0.01,0.13 -0.04,0.17 -0.02,0.31 -0.02,0.2 -0.07,0.37 -0.04,0.64 0,0.06 -0.02,0.4 -0.08,0.5 -0.06,0.07 -0.09,0.1 -0.17,0.14 0,0.02 0.02,0.05 0.05,0.09 0,0 -0.02,0.02 -0.02,0.02 -0.12,0.15 0.07,0.05 -0.12,0.19 0.04,0.08 -0.01,0 0.09,0.07 -0.07,0.05 0.03,-0.01 -0.12,0.03 -0.01,0.16 -0.02,0.25 -0.03,0.36 0.08,0.05 0.04,0 0.08,0.07 -0.1,0.05 -0.08,0.04 -0.13,0.12l0.06 0.04 -0.06 0.02c0.05,0.11 0.02,0.11 0.05,0.22 0.03,0.23 -0.07,0.46 0.02,0.55z"/>
   <path class="fil1" d="M8.32 6.9c-0.06,-0.07 -0.1,-0.1 -0.12,0.02 0,0.06 0.01,0.16 0,0.22l-0.02 0.26c0.03,0.05 -0.01,0 0.03,0.04 0,0 0.05,0.02 0.05,0.03 -0.09,0.35 -0.15,0.21 -0.24,0.18 -0.02,0.06 -0.01,0.08 -0.08,0.13 -0.03,0.02 -0.05,0.03 -0.06,0.04 0,0 0.02,0.03 0.03,0.04 0.01,0.01 0.02,0.02 0.02,0.02 0.06,0.03 -0.02,0.01 0.05,0.01 0,0 0.01,0 0.01,0 -0.06,0.09 -0.02,0.07 -0.04,0.11 -0.04,0.07 -0.02,0 -0.02,0l-0.02 0.04c0.02,0.07 0.02,0.08 -0.03,0.15 0.03,0.03 0.06,0.05 0.08,0.1 -0.03,0.08 -0.06,0.03 -0.07,0.12 0,0.01 0,0.04 -0.03,0.04 -0.07,0 0.06,-0.02 -0.11,-0.03l0.02 0.16 -0.21 0.09c-0.02,0.01 -0.05,0.02 -0.08,0.03 -0.03,0.17 0,0.13 0.01,0.25 0.01,0.06 -0.01,0.04 0.05,0.09 0.05,0.03 0.01,-0.01 0.06,0.03 0.03,0.04 0.02,0.02 0.04,0.06 0.04,0.09 0,0.19 0,0.23 0,0.06 0.02,0.06 0.05,0.12 0.05,0.08 0.03,0.05 0.03,0.16 -0.05,0.04 -0.09,0.02 -0.09,0.1 -0.05,0.03 0.01,-0.03 0.03,0.05 0.01,0.05 -0.03,0.17 -0.01,0.27l0 0.04c0,0 0,0.01 0,0.01 -0.08,0.03 -0.13,-0.09 -0.17,-0.14 0.01,0.15 0.04,0.04 0.05,0.19 -0.05,-0.05 -0.16,-0.06 -0.24,-0.04 -0.03,0 -0.05,0.01 -0.05,0.06 0,0.12 0.12,0.21 0.1,0.37 0,0 0.01,0 0.01,0.01 0.01,0.05 0.01,-0.01 0.07,0.04 0.18,0.14 0.07,0.03 0.16,0.16 0.02,0.02 -0.03,0.01 0.05,0.04 0.04,0.01 0.03,0 0.06,-0.01 -0.01,0.17 0.21,0.24 0.28,0.18 0.05,-0.06 -0.07,-0.31 0.03,-0.46l0.07 -0.17c0.15,0.01 0,0.03 0.18,0.21 0.02,0.01 0.01,0 0.04,0.03l0.1 0.09c0.08,0.14 0.06,0.03 0.14,0.13 0,-0.05 -0.02,-0.17 -0.03,-0.22 -0.03,-0.13 -0.05,-0.02 -0.08,-0.23l0.18 0.08c-0.01,0.15 0,0.17 0.03,0.28 0.04,0.11 0.02,0.2 0,0.25 -0.02,0.03 -0.03,-0.05 -0.02,0.07 0.01,0.07 0.01,0.07 0.01,0.15 0,0.05 0,0.11 0.01,0.16 0.04,0.16 0.07,0.1 -0.04,0.25 -0.06,0.07 -0.03,0.05 -0.1,0.12 0.16,-0.05 0.36,-0.35 0.5,-0.35 -0.01,-0.02 -0.02,-0.02 -0.04,-0.04 -0.02,-0.04 -0.01,-0.02 -0.03,-0.08l0.21 -0.15c-0.05,-0.06 -0.04,-0.02 -0.06,-0.1 0.17,-0.28 0.02,-0.37 0.05,-0.65 -0.1,0.04 -0.02,0.07 -0.12,0.12 -0.06,-0.06 -0.02,-0.09 -0.09,-0.12 0.1,-0.06 0.1,-0.05 0.16,-0.16l-0.03 -0.02c-0.06,-0.03 -0.04,0.01 -0.07,-0.05 0.04,-0.07 0.05,-0.08 0.12,-0.12 -0.07,-0.06 -0.09,-0.01 -0.15,-0.06 -0.14,-0.12 -0.01,-0.13 0.07,-0.25 0.02,-0.04 0.06,-0.1 0.06,-0.14 0.01,-0.06 -0.02,-0.11 -0.06,-0.14 0,0 -0.01,0.02 -0.02,0.03 -0.03,0.06 -0.01,0.06 -0.06,0.09 0,-0.1 0.04,-0.28 -0.1,-0.32 -0.02,0 -0.06,0 -0.11,-0.01 0.01,-0.08 0.01,-0.11 0.01,-0.16 0.01,-0.07 0.03,-0.09 0.04,-0.16 -0.02,-0.09 -0.06,-0.02 -0.09,-0.13l-0.03 -0.48c0,-0.04 -0.02,-0.07 0,-0.15 0.02,-0.07 -0.01,-0.18 -0.02,-0.25l0 -0.04c0.01,-0.07 0.04,0.03 -0.02,-0.04 -0.12,-0.12 -0.03,-0.16 -0.05,-0.3 -0.01,-0.04 -0.02,-0.06 0.02,-0.12 0.05,-0.06 0.07,-0.12 0.12,-0.14l-0.07 -0.09c-0.05,-0.11 0.01,-0.02 -0.01,-0.09l0 -0.02c-0.03,-0.08 -0.02,-0.02 -0.1,-0.11 -0.03,-0.03 -0.02,-0.12 -0.13,-0.1 -0.12,0.03 0,-0.01 -0.07,0.09z"/>
   <path class="fil1" d="M7.57 5.6c0.01,0 0.02,0 0.02,0.01l0.07 0.07c0.04,0.12 -0.05,-0.05 0.01,0.04 0.02,0.03 0.11,0.07 0.15,0.1 0.1,0.07 0.06,0.06 0.07,0.16l0.02 0.06c0,0 0.01,0.02 0.01,0.03 0.04,0.15 0.1,0.15 0.24,0.19l0.05 0.02c0,0 0.01,0 0.01,0.01l0.06 0.03c0.08,0.04 0.07,0.02 0.14,0.11l0.07 0.08c0.13,-0.04 0.01,-0.1 0.21,0.02 0.04,-0.06 0.03,-0.05 0.12,-0.06 -0.06,-0.16 0.05,0.1 -0.03,-0.03l0 -0.14c0.04,0.03 0.1,0.05 0.16,0.07 0.09,0.03 0.07,0.01 0.19,0.01 -0.06,-0.15 0.02,-0.13 0.1,-0.17 0.1,-0.05 -0.01,-0.07 0.24,-0.04 -0.03,0.1 0.01,0.13 -0.04,0.23l0.13 -0.02c0.02,0.11 0.09,0.14 0.1,0.24 0,0 -0.01,0.01 0,0.01l0.09 0.12c0.04,0.01 -0.04,-0.06 0.04,0 -0.03,0.07 -0.03,0.07 -0.1,0.04 0.04,0.13 -0.06,-0.1 0.03,0.04l0.05 0.32c0,0 0,0 0,0.01 0,0.06 0.03,0.09 0.07,0.13 0.01,0.01 0.02,0.02 0.02,0.03 0.06,0.06 0.11,0.11 0.11,0.2 -0.01,0.07 0,-0.01 -0.02,0.06 0,0 -0.01,0.04 -0.01,0.08l0.11 -0.07c0.08,-0.1 0.08,-0.17 0.19,-0.25 0.1,-0.06 0.14,-0.09 0.19,-0.21 0.04,-0.08 0.05,-0.09 0.04,-0.18 -0.02,-0.23 0.13,-0.16 0.12,-0.35 0,-0.11 -0.08,-0.26 -0.2,-0.26 -0.04,0 -0.08,0.02 -0.13,0.03 -0.1,0.02 -0.11,0 -0.14,-0.02 0.04,-0.07 -0.02,-0.07 0.22,-0.07 0.12,0 0.19,-0.02 0.25,-0.06l-0.06 -0.11 -0.09 0.03c-0.02,-0.01 0.01,0 -0.03,-0.02 -0.11,-0.04 -0.06,-0.01 -0.18,0 -0.14,0.01 -0.15,0.08 -0.3,0.1 -0.05,-0.13 -0.02,-0.22 -0.03,-0.36 -0.01,-0.1 -0.06,-0.16 -0.08,-0.21 0,0 0,-0.02 0,-0.02l-0.17 0.03c-0.07,0.06 -0.03,0.11 -0.01,0.16l-0.16 0.01c-0.01,-0.06 -0.02,-0.09 -0.04,-0.14 0.05,-0.06 0.07,-0.05 0.09,-0.14 -0.04,-0.06 -0.1,-0.06 -0.17,-0.1 0,0.01 0,0.01 0,0.02 -0.01,0.08 -0.03,0.12 -0.12,0.08 -0.01,0.07 0,0.03 -0.02,0.08 -0.01,0.06 -0.01,0.04 -0.02,0.06 -0.01,0 -0.01,-0.02 -0.01,-0.01l-0.03 -0.05c0,0 -0.01,-0.01 -0.01,-0.01 0,0 -0.01,-0.01 -0.01,-0.01 -0.01,0 -0.01,0 -0.02,-0.01l-0.11 -0.09 -0.04 0.06c-0.03,0.03 0.03,0 -0.03,0.03 -0.05,-0.03 -0.01,-0.01 -0.05,-0.05 0,0 0,0 -0.01,-0.01 0,0 -0.01,-0.01 -0.01,-0.01 0,-0.01 -0.01,-0.01 -0.01,-0.02 0,0 -0.01,-0.01 -0.01,-0.01l-0.08 0.06c-0.07,0.04 0.01,0.02 -0.12,0.01 0,0.21 -0.03,0.12 -0.04,0.12 -0.13,-0.04 -0.01,-0.02 -0.14,0.02 -0.02,-0.05 0.03,0.05 0,-0.03l-0.08 0.03c0.06,-0.2 -0.12,-0.05 -0.15,-0.13 -0.03,-0.07 0.03,-0.03 0.01,-0.09 -0.04,-0.07 -0.12,-0.03 -0.15,0.01 -0.02,-0.03 -0.01,-0.03 -0.03,-0.04l-0.35 -0.25c-0.07,-0.05 0.01,-0.02 -0.09,-0.04 -0.19,0.14 -0.2,0.13 -0.08,0.31 0.03,0.06 0.01,0.03 0.01,0.12z"/>
   <path class="fil1 str1" d="M0.93 8.1c0.27,-0.31 0.15,-0.52 0.37,-0.81 0.16,-0.1 0.03,0.34 0.16,0.34 0.18,-0.32 0.26,-0.64 0.41,-0.98 0.06,-0.12 0.7,-0.54 1.22,-0.64 0.12,-0.02 0.34,-0.09 0.37,-0.18 0.03,-0.11 0.42,-0.23 0.42,-0.23 -0.02,-0.05 -0.01,-0.03 -0.08,-0.06 -0.44,0.09 -0.38,0.07 -0.78,0.18l-0.8 0.17c-0.24,0.07 -1.26,0.45 -1.43,0.54 -0.2,0.11 -0.49,0.23 -0.52,0.46 -0.04,0.39 -0.04,0.91 0.25,1.19 0.04,0.08 0.27,0.13 0.41,0.02z"/>
   <path class="fil1" d="M7.1 4.57c-0.1,-0.15 0.31,-0.46 0.44,0.01 0.09,0.33 0.19,0.22 0.26,0.76 0.02,0.17 0.32,0.69 -0.22,0.54 -0.69,-0.2 -0.84,-0.55 -0.57,-1.02 0.05,-0.09 0.17,-0.16 0.09,-0.29z"/>
   <path class="fil1" d="M7.12 4.63c0.03,0.06 0.11,0.18 0.14,0.23 0.03,0.04 0.48,0.51 0.46,0.52 -0.08,0.09 -0.09,0.13 -0.26,0.27 -0.18,0.14 -0.3,0.09 -0.43,-0.09 -0.09,-0.12 -0.08,-0.44 -0.03,-0.57 0.03,-0.11 0.11,-0.2 0.12,-0.31 0,-0.02 0,-0.05 0,-0.05z"/>
   <path class="fil0" d="M7.01 5.01c0.06,-0.01 0.47,-0.07 0.44,0.12 -0.01,0.02 -0.03,0.09 -0.07,0.05 -0.1,-0.11 -0.32,0.04 -0.4,-0.09 -0.02,-0.03 -0.01,-0.07 0.03,-0.08z"/>
  </g>
 </g>
</svg>
