<?xml version="1.0" encoding="UTF-8"?>
<!DOCTYPE svg PUBLIC "-//W3C//DTD SVG 1.1//EN" "http://www.w3.org/Graphics/SVG/1.1/DTD/svg11.dtd">
<!-- Creator: CorelDRAW 2020 (64-Bit) -->
<svg xmlns="http://www.w3.org/2000/svg" xml:space="preserve" width="32px" height="55px" version="1.1" style="shape-rendering:geometricPrecision; text-rendering:geometricPrecision; image-rendering:optimizeQuality; fill-rule:evenodd; clip-rule:evenodd"
viewBox="0 0 20.4 34.81"
 xmlns:xlink="http://www.w3.org/1999/xlink"
 xmlns:xodm="http://www.corel.com/coreldraw/odm/2003">
 <defs>
  <style type="text/css">
   <![CDATA[
    .str0 {stroke:black;stroke-width:0.1;stroke-miterlimit:22.9256}
    .fil2 {fill:#404142}
    .fil0 {fill:#99FFFF}
    .fil3 {fill:#F6F6F6}
    .fil1 {fill:red}
   ]]>
  </style>
 </defs>
 <g id="Layer_x0020_1">
  <metadata id="CorelCorpID_0Corel-Layer"/>
  <g id="_2012670938800">
   <path class="fil0 str0" d="M17.96 5.9c-0.79,0.03 -0.67,-0.57 -1.16,0.6 -0.16,0.38 -0.56,1.31 -0.31,1.68 0.15,0.23 0.5,0.42 0.67,0.61 -0.52,-0.08 -0.97,-0.52 -1.23,-0.1l-0.3 0.58c-0.31,0.61 -0.6,1.2 -1.12,1.72 -0.36,0.35 -0.6,0.72 -0.88,1.05 0.26,-1.22 0.8,-0.94 0.22,-2.62 -0.39,-1.17 -1.43,-1.96 -2.03,-1.3l0.27 0.09c0.29,0.06 0.6,0.19 0.81,0.43 -0.23,-0.19 -0.7,-0.27 -1.08,-0.28 -0.46,-0.01 -0.48,0.53 -0.57,0.87 -0.14,0.56 -0.55,1.85 -0.35,2.37 0.31,0.03 0.79,0.23 1.02,0.49 -0.24,-0.09 -0.31,-0.16 -0.64,-0.21 -0.42,-0.07 -0.35,-0.06 -0.63,0.18 0.13,0.26 0.24,0.24 0.28,0.6 0.05,0.36 -0.02,0.83 -0.2,1.13 -0.09,0.14 -0.26,0.33 -0.34,0.48 0.71,0.22 0.87,0.57 0.79,1.39 -0.08,0.99 -0.56,0.77 -1.34,0.74 0.42,0.42 1.3,0.22 1.6,-0.25 0.37,-0.57 0.5,-1.36 0.73,-1.99 0.06,-0.16 0.11,-0.24 0.16,-0.4 0.09,-0.28 0.21,-0.5 0.31,-0.79l0.3 -0.78c0.09,-0.23 0.27,-0.54 0.32,-0.78 -0.04,0.69 -0.7,2.51 -0.66,2.84 0.28,0 0.49,0.03 0.83,-0.02 0.31,-0.04 0.61,-0.12 0.92,-0.15 0.26,-0.03 0.58,-0.05 0.83,-0.04 0.22,0 0.47,0.01 0.68,0.07l0.13 0.05c-0.26,0.01 -0.52,-0.04 -0.82,-0.02 -0.6,0.03 -1.18,0.19 -1.77,0.31 -0.37,0.08 -0.55,0.05 -0.87,0.06 -0.04,0.12 -0.24,1.07 -0.24,1.16 0.26,0.08 1.74,-0.1 2.08,-0.17 -0.34,0.14 -0.77,0.26 -1.12,0.37 -1.4,0.42 -0.86,-0.15 -1.25,0.63 -0.24,0.5 -0.46,0.79 -1.06,1.03 0.1,0.27 0.76,0.73 1.1,1.91 0.21,0.74 0.17,1.4 0.08,2.03 -0.17,-1.15 -0.09,-1.78 -0.85,-2.85 -0.59,-0.84 -1.15,-1.11 -1.9,-1.69 -0.53,-0.41 -1.49,-1.23 -2.33,-0.5 -0.61,0.54 -1.05,1.38 -1.51,2 0.07,-0.2 0.12,-0.34 0.19,-0.54 0.04,-0.13 0.21,-0.4 0.22,-0.57 -0.4,0.14 -0.89,0.22 -1.23,0.13 0.67,-0.24 1.11,-0.31 1.58,-0.84 0.26,-0.29 0.67,-0.99 0.77,-1.28 -0.4,-0.39 -0.76,-0.57 -1.04,-1.23l0.26 0.24c0.27,0.28 0.54,0.38 0.93,0.41 1.13,0.11 3.01,-0.23 3.27,-1.54 0.04,-0.19 0.09,-0.59 -0.08,-0.71 -0.08,0.32 -0.11,0.56 -0.51,0.75 -0.33,0.16 -0.74,0.16 -1.04,0.1 -1.17,-0.2 -1.01,-0.82 -1.03,-1.43 -1.17,-0.09 -2.14,-0.94 -2.29,-0.06 -0.04,0.29 0.06,0.67 0.1,0.99 -0.43,-0.39 -0.58,-1.06 -1.17,0.23 -0.38,0.82 -0.71,1.66 -0.96,2.53 -0.38,1.32 -0.49,2.46 0.51,3.97 0.77,1.15 1.65,2.26 2.53,3.27 0.38,0.44 0.99,1.04 1.41,1.27 0.62,0.34 1,0.35 1.8,0.42 -1.34,0.41 -1.92,-0.66 -1.78,1.66 0.05,0.81 0.08,1.33 0.03,2.13 -0.01,0.21 -0.1,0.52 -0.08,0.72 0.92,0.01 1.98,0.04 2.93,0 0.12,-1.26 0.1,-2.51 0.35,-3.68 0.09,0.45 0.1,1.32 0.11,1.81 0.01,0.31 0.02,0.59 0.03,0.89 0.01,0.31 -0.03,0.6 0.01,0.9l0.99 -0.01c0.12,-0.92 -0.19,-1.21 0.35,-3.21l0.32 -0.92c0.18,0.59 -0.64,2.97 -0.13,4.09 0.5,0.07 2.83,0.13 3.45,-0.32l0.21 -5.39c-0.65,0.4 -0.51,0.36 -1.27,0.56 0.78,-0.36 0.93,-0.54 1.31,-1.12 0.19,-0.29 0.27,-1.15 0.37,-1.54 0.21,-0.89 0.43,-2.23 0.4,-3.25 -0.02,-1.17 -0.29,-2.43 -0.46,-3.64 -0.06,-0.45 -0.12,-0.88 -0.13,-1.32 -0.01,-0.67 0.17,-0.69 -1.18,-1.55 0.52,0.06 0.87,0.33 1.32,0.59 0.23,-0.57 0.36,-1.15 0.63,-1.72 0.07,-0.15 0.11,-0.29 0.16,-0.44 0.07,-0.2 0.1,-0.23 0.2,-0.42 0.43,-0.85 0.63,-1.68 0.87,-2.64 0.16,-0.62 0.29,-1.23 0.47,-1.83 0.19,-0.66 0.76,-2.18 -0.29,-2.76 -0.69,-0.38 -1.03,0.71 -1.16,1.19 -0.18,0.63 -0.48,1.16 -0.45,1.85 0.01,0.35 0.42,0.53 0.63,0.73z"/>
   <path class="fil0 str0" d="M7.93 8.16c0.22,0.04 0.56,-0.07 0.81,-0.06 0.29,0.01 0.52,0.04 0.72,0.14 -0.44,-0.01 -0.64,-0.07 -1.15,0.06 -0.68,0.18 -0.74,0.26 -0.88,0.76 -0.17,0.63 -0.17,1.6 0.09,2.39 0.17,0.01 0.35,0.05 0.55,0.08 0.19,0.02 0.38,0.02 0.56,0.03 0.41,0.03 0.79,0.13 1.14,0.15l0.68 -2.89c-0.01,-0.09 -0.38,-0.47 -0.48,-0.58 -0.48,-0.55 -1.35,-0.88 -2.04,-0.08z"/>
   <path class="fil0 str0" d="M2.79 3.87c-0.91,0.47 -1.01,0.39 -0.69,1.36 0.18,0.53 0.42,1.57 0.89,1.75 0.35,-0.03 0.77,-0.26 1.17,-0.2 -0.22,0.1 -0.44,0.19 -0.64,0.31 -0.69,0.4 -0.56,0.63 -0.18,1.71 0.17,0.47 0.32,0.94 0.5,1.41 0.19,0.53 0.28,0.93 0.7,1.14 0.37,-0.16 0.56,-0.4 1.03,-0.4 0.35,0.01 0.61,0.17 0.92,0.18l-0.08 -0.82c-0.54,-0.09 -1.16,0.4 -1.63,0.6 0.41,-0.28 0.45,-0.6 1.52,-1 -0.08,-0.35 -1.28,-3.37 -1.49,-3.83 -0.55,-1.2 -1.15,-2.43 -1.6,-3.68 -0.28,-0.8 -0.74,-1.85 -1.7,-1.51 -0.48,0.16 -0.45,0.32 -0.47,0.61 -0.04,0.67 0.47,2.57 0.87,2.51 0.31,-0.04 0.57,-0.2 0.88,-0.14z"/>
   <path class="fil0 str0" d="M10.34 12.42c-0.43,-0.34 -1.99,-0.5 -2.46,-0.47 0.09,0.81 0.43,1.05 1.07,1.12 0.41,0.05 0.89,0.1 1.21,-0.28 0.12,-0.14 0.17,-0.21 0.18,-0.37z"/>
   <path class="fil0 str0" d="M9.94 14.65c-0.24,0.21 -0.45,0.93 -0.44,1.08 0.05,0.42 0.68,0.48 1.04,0.42 0.32,-0.04 0.33,-0.22 0.35,-0.45 0.02,-0.17 0.05,-0.49 0.02,-0.64 -0.08,-0.39 -0.69,-0.68 -0.97,-0.41z"/>
   <path class="fil1 str0" d="M17.76 33.11c0.13,-0.33 0.02,-0.22 0.04,-0.64 0.07,-0.15 2.46,-1.21 2.24,-1.92 -0.15,-0.49 -0.86,-0.7 -1.23,-0.88 -0.11,-0.05 -0.13,-0.08 -0.25,-0.12 -0.19,-0.07 -0.35,-0.11 -0.53,-0.19 -0.07,-0.29 -0.12,-0.65 -0.16,-0.94 -0.1,-0.68 -0.25,-0.59 -0.44,-0.77 -0.1,-0.1 -0.12,-3.93 -0.11,-4.26 0.03,-0.87 0.67,-2.95 0.78,-4.76 0.12,-1.95 -0.37,-3.5 -0.53,-5.3 -0.08,-0.83 0.03,-0.97 0.23,-1.6l0.39 -1.12c0.34,-0.83 0.74,-1.63 1.01,-2.5 0.25,-0.78 0.37,-1.54 0.59,-2.3l0.44 -1.5c0.06,-0.25 0.11,-0.51 0.12,-0.8 0,-0.13 0,-0.28 -0.02,-0.41 -0.06,-0.51 -0.1,-0.31 -0.01,-0.42l-0.17 -0.46c-0.17,-0.03 0.05,0.15 -0.27,-0.28 -0.49,-0.65 -1.51,-1.02 -2.3,-0.37 -0.74,0.61 -0.9,1.58 -1.11,2.43 -0.11,0.47 -0.19,0.9 -0.31,1.36 -0.17,0.63 -1.39,3.39 -1.63,3.65 -0.29,-0.77 -0.88,-1.59 -1.65,-1.8 -0.91,-0.23 -1.51,-0.18 -2.27,0.56 -0.14,-0.11 -0.25,-0.25 -0.43,-0.39 -1.23,-0.93 -3,-0.35 -3.53,0.69 -0.07,0.14 -0.02,0.09 -0.13,0.2 -0.4,-0.85 -0.69,-1.83 -1.1,-2.72 -0.39,-0.87 -0.8,-1.73 -1.16,-2.61 -0.35,-0.86 -0.58,-1.83 -1.23,-2.42 -0.3,-0.27 -0.58,-0.41 -0.95,-0.46 -0.37,-0.04 -0.81,0.03 -1.18,0.25 -1.54,0.92 -0.63,2.91 -0.05,4.6 0.62,1.81 1.29,3.62 1.91,5.43 0.16,0.46 0.32,0.92 0.46,1.38 0.23,0.7 0.3,0.65 0.08,1.19 -0.17,0.42 -0.71,1.6 -0.82,1.94l-0.34 1.01c-0.45,1.28 -0.63,2.17 0.09,3.36 0.82,1.35 1.93,2.67 2.91,3.79 0.26,0.29 0.56,0.55 0.74,0.92 0.49,1.04 0.81,2.67 0.73,3.74 -0.81,0.25 -1.44,0.8 -1.6,1.05 -0.15,0.25 -0.18,0.46 -0.22,0.64 -0.04,0.12 -1.3,0.7 -1.46,1.28 -0.16,0.6 0.74,0.98 1.01,1.12 0.5,0.25 0.61,0.1 0.66,0.51 0.03,0.22 -0.04,0.69 0.08,0.87 2.51,2.31 11.32,2.02 12.68,-0.03z"/>
   <path class="fil2" d="M17.76 33.11c0.13,-0.33 0.02,-0.22 0.04,-0.64 0.07,-0.15 2.46,-1.21 2.24,-1.92 -0.15,-0.49 -0.86,-0.7 -1.23,-0.88 -0.11,-0.05 -0.13,-0.08 -0.25,-0.12 -0.19,-0.07 -0.35,-0.11 -0.53,-0.19 -0.07,-0.29 -0.12,-0.65 -0.16,-0.94 -0.1,-0.68 -0.25,-0.59 -0.44,-0.77 -0.1,-0.1 -0.12,-3.93 -0.11,-4.26 0.03,-0.87 0.67,-2.95 0.78,-4.76 0.12,-1.95 -0.37,-3.5 -0.53,-5.3 -0.08,-0.83 0.03,-0.97 0.23,-1.6l0.39 -1.12c0.34,-0.83 0.74,-1.63 1.01,-2.5 0.25,-0.78 0.37,-1.54 0.59,-2.3l0.44 -1.5c0.06,-0.25 0.11,-0.51 0.12,-0.8 0,-0.13 0,-0.28 -0.02,-0.41 -0.06,-0.51 -0.1,-0.31 -0.01,-0.42l-0.17 -0.46c-0.17,-0.03 0.05,0.15 -0.27,-0.28 -0.49,-0.65 -1.51,-1.02 -2.3,-0.37 -0.74,0.61 -0.9,1.58 -1.11,2.43 -0.11,0.47 -0.19,0.9 -0.31,1.36 -0.17,0.63 -1.39,3.39 -1.63,3.65 -0.29,-0.77 -0.88,-1.59 -1.65,-1.8 -0.91,-0.23 -1.51,-0.18 -2.27,0.56 -0.14,-0.11 -0.25,-0.25 -0.43,-0.39 -1.23,-0.93 -3,-0.35 -3.53,0.69 -0.07,0.14 -0.02,0.09 -0.13,0.2 -0.4,-0.85 -0.69,-1.83 -1.1,-2.72 -0.39,-0.87 -0.8,-1.73 -1.16,-2.61 -0.35,-0.86 -0.58,-1.83 -1.23,-2.42 -0.3,-0.27 -0.58,-0.41 -0.95,-0.46 -0.37,-0.04 -0.81,0.03 -1.18,0.25 -1.54,0.92 -0.63,2.91 -0.05,4.6 0.62,1.81 1.29,3.62 1.91,5.43 0.16,0.46 0.32,0.92 0.46,1.38 0.23,0.7 0.3,0.65 0.08,1.19 -0.17,0.42 -0.71,1.6 -0.82,1.94l-0.34 1.01c-0.45,1.28 -0.63,2.17 0.09,3.36 0.82,1.35 1.93,2.67 2.91,3.79 0.26,0.29 0.56,0.55 0.74,0.92 0.49,1.04 0.81,2.67 0.73,3.74 -0.81,0.25 -1.44,0.8 -1.6,1.05 -0.15,0.25 -0.18,0.46 -0.22,0.64 -0.04,0.12 -1.3,0.7 -1.46,1.28 -0.16,0.6 0.74,0.98 1.01,1.12 0.5,0.25 0.61,0.1 0.66,0.51 0.03,0.22 -0.04,0.69 0.08,0.87 2.51,2.31 11.32,2.02 12.68,-0.03zm-7.82 -18.46c-0.24,0.21 -0.45,0.93 -0.44,1.08 0.05,0.42 0.68,0.48 1.04,0.42 0.32,-0.04 0.33,-0.22 0.35,-0.45 0.02,-0.17 0.05,-0.49 0.02,-0.64 -0.08,-0.39 -0.69,-0.68 -0.97,-0.41zm0.4 -2.23c-0.43,-0.34 -1.99,-0.5 -2.46,-0.47 0.09,0.81 0.43,1.05 1.07,1.12 0.41,0.05 0.89,0.1 1.21,-0.28 0.12,-0.14 0.17,-0.21 0.18,-0.37zm-7.55 -8.55c-0.91,0.47 -1.01,0.39 -0.69,1.36 0.18,0.53 0.42,1.57 0.89,1.75 0.35,-0.03 0.77,-0.26 1.17,-0.2 -0.22,0.1 -0.44,0.19 -0.64,0.31 -0.69,0.4 -0.56,0.63 -0.18,1.71 0.17,0.47 0.32,0.94 0.5,1.41 0.19,0.53 0.28,0.93 0.7,1.14 0.37,-0.16 0.56,-0.4 1.03,-0.4 0.35,0.01 0.61,0.17 0.92,0.18l-0.08 -0.82c-0.54,-0.09 -1.16,0.4 -1.63,0.6 0.41,-0.28 0.45,-0.6 1.52,-1 -0.08,-0.35 -1.28,-3.37 -1.49,-3.83 -0.55,-1.2 -1.15,-2.43 -1.6,-3.68 -0.28,-0.8 -0.74,-1.85 -1.7,-1.51 -0.48,0.16 -0.45,0.32 -0.47,0.61 -0.04,0.67 0.47,2.57 0.87,2.51 0.31,-0.04 0.57,-0.2 0.88,-0.14zm5.14 4.29c0.22,0.04 0.56,-0.07 0.81,-0.06 0.29,0.01 0.52,0.04 0.72,0.14 -0.44,-0.01 -0.64,-0.07 -1.15,0.06 -0.68,0.18 -0.74,0.26 -0.88,0.76 -0.17,0.63 -0.17,1.6 0.09,2.39 0.17,0.01 0.35,0.05 0.55,0.08 0.19,0.02 0.38,0.02 0.56,0.03 0.41,0.03 0.79,0.13 1.14,0.15l0.68 -2.89c-0.01,-0.09 -0.38,-0.47 -0.48,-0.58 -0.48,-0.55 -1.35,-0.88 -2.04,-0.08zm10.03 -2.26c-0.79,0.03 -0.67,-0.57 -1.16,0.6 -0.16,0.38 -0.56,1.31 -0.31,1.68 0.15,0.23 0.5,0.42 0.67,0.61 -0.52,-0.08 -0.97,-0.52 -1.23,-0.1l-0.3 0.58c-0.31,0.61 -0.6,1.2 -1.12,1.72 -0.36,0.35 -0.6,0.72 -0.88,1.05 0.26,-1.22 0.8,-0.94 0.22,-2.62 -0.39,-1.17 -1.43,-1.96 -2.03,-1.3l0.27 0.09c0.29,0.06 0.6,0.19 0.81,0.43 -0.23,-0.19 -0.7,-0.27 -1.08,-0.28 -0.46,-0.01 -0.48,0.53 -0.57,0.87 -0.14,0.56 -0.55,1.85 -0.35,2.37 0.31,0.03 0.79,0.23 1.02,0.49 -0.24,-0.09 -0.31,-0.16 -0.64,-0.21 -0.42,-0.07 -0.35,-0.06 -0.63,0.18 0.13,0.26 0.24,0.24 0.28,0.6 0.05,0.36 -0.02,0.83 -0.2,1.13 -0.09,0.14 -0.26,0.33 -0.34,0.48 0.71,0.22 0.87,0.57 0.79,1.39 -0.08,0.99 -0.56,0.77 -1.34,0.74 0.42,0.42 1.3,0.22 1.6,-0.25 0.37,-0.57 0.5,-1.36 0.73,-1.99 0.06,-0.16 0.11,-0.24 0.16,-0.4 0.09,-0.28 0.21,-0.5 0.31,-0.79l0.3 -0.78c0.09,-0.23 0.27,-0.54 0.32,-0.78 -0.04,0.69 -0.7,2.51 -0.66,2.84 0.28,0 0.49,0.03 0.83,-0.02 0.31,-0.04 0.61,-0.12 0.92,-0.15 0.26,-0.03 0.58,-0.05 0.83,-0.04 0.22,0 0.47,0.01 0.68,0.07l0.13 0.05c-0.26,0.01 -0.52,-0.04 -0.82,-0.02 -0.6,0.03 -1.18,0.19 -1.77,0.31 -0.37,0.08 -0.55,0.05 -0.87,0.06 -0.04,0.12 -0.24,1.07 -0.24,1.16 0.26,0.08 1.74,-0.1 2.08,-0.17 -0.34,0.14 -0.77,0.26 -1.12,0.37 -1.4,0.42 -0.86,-0.15 -1.25,0.63 -0.24,0.5 -0.46,0.79 -1.06,1.03 0.1,0.27 0.76,0.73 1.1,1.91 0.21,0.74 0.17,1.4 0.08,2.03 -0.17,-1.15 -0.09,-1.78 -0.85,-2.85 -0.59,-0.84 -1.15,-1.11 -1.9,-1.69 -0.53,-0.41 -1.49,-1.23 -2.33,-0.5 -0.61,0.54 -1.05,1.38 -1.51,2 0.07,-0.2 0.12,-0.34 0.19,-0.54 0.04,-0.13 0.21,-0.4 0.22,-0.57 -0.4,0.14 -0.89,0.22 -1.23,0.13 0.67,-0.24 1.11,-0.31 1.58,-0.84 0.26,-0.29 0.67,-0.99 0.77,-1.28 -0.4,-0.39 -0.76,-0.57 -1.04,-1.23l0.26 0.24c0.27,0.28 0.54,0.38 0.93,0.41 1.13,0.11 3.01,-0.23 3.27,-1.54 0.04,-0.19 0.09,-0.59 -0.08,-0.71 -0.08,0.32 -0.11,0.56 -0.51,0.75 -0.33,0.16 -0.74,0.16 -1.04,0.1 -1.17,-0.2 -1.01,-0.82 -1.03,-1.43 -1.17,-0.09 -2.14,-0.94 -2.29,-0.06 -0.04,0.29 0.06,0.67 0.1,0.99 -0.43,-0.39 -0.58,-1.06 -1.17,0.23 -0.38,0.82 -0.71,1.66 -0.96,2.53 -0.38,1.32 -0.49,2.46 0.51,3.97 0.77,1.15 1.65,2.26 2.53,3.27 0.38,0.44 0.99,1.04 1.41,1.27 0.62,0.34 1,0.35 1.8,0.42 -1.34,0.41 -1.92,-0.66 -1.78,1.66 0.05,0.81 0.08,1.33 0.03,2.13 -0.01,0.21 -0.1,0.52 -0.08,0.72 0.92,0.01 1.98,0.04 2.93,0 0.12,-1.26 0.1,-2.51 0.35,-3.68 0.09,0.45 0.1,1.32 0.11,1.81 0.01,0.31 0.02,0.59 0.03,0.89 0.01,0.31 -0.03,0.6 0.01,0.9l0.99 -0.01c0.12,-0.92 -0.19,-1.21 0.35,-3.21l0.32 -0.92c0.18,0.59 -0.64,2.97 -0.13,4.09 0.5,0.07 2.83,0.13 3.45,-0.32l0.21 -5.39c-0.65,0.4 -0.51,0.36 -1.27,0.56 0.78,-0.36 0.93,-0.54 1.31,-1.12 0.19,-0.29 0.27,-1.15 0.37,-1.54 0.21,-0.89 0.43,-2.23 0.4,-3.25 -0.02,-1.17 -0.29,-2.43 -0.46,-3.64 -0.06,-0.45 -0.12,-0.88 -0.13,-1.32 -0.01,-0.67 0.17,-0.69 -1.18,-1.55 0.52,0.06 0.87,0.33 1.32,0.59 0.23,-0.57 0.36,-1.15 0.63,-1.72 0.07,-0.15 0.11,-0.29 0.16,-0.44 0.07,-0.2 0.1,-0.23 0.2,-0.42 0.43,-0.85 0.63,-1.68 0.87,-2.64 0.16,-0.62 0.29,-1.23 0.47,-1.83 0.19,-0.66 0.76,-2.18 -0.29,-2.76 -0.69,-0.38 -1.03,0.71 -1.16,1.19 -0.18,0.63 -0.48,1.16 -0.45,1.85 0.01,0.35 0.42,0.53 0.63,0.73z"/>
   <path class="fil3" d="M13.7 31.45c-0.98,0.85 0.19,2.63 1.09,1.8 0.32,-0.29 0.46,-0.87 0.2,-1.4 -0.23,-0.49 -0.81,-0.82 -1.29,-0.4z"/>
   <path class="fil3" d="M8.6 31.44c-1.01,0.8 -0.01,2.69 1,1.91 0.36,-0.27 0.53,-0.87 0.32,-1.41 -0.2,-0.55 -0.81,-0.91 -1.32,-0.5z"/>
   <path class="fil3" d="M17.43 27.96c0.4,2.34 -11.41,1.63 -11.76,0.89 0.11,-0.32 0.54,-0.51 0.81,-0.69 0.05,-0.06 0.03,-0.04 0.06,-0.09 -1.51,0.5 -1.55,1.15 -0.13,1.37 2.17,0.34 11.99,0.82 11.02,-1.48z"/>
   <path class="fil3" d="M10.34 12.42c-0.43,-0.34 -1.99,-0.5 -2.46,-0.47 0.09,0.81 0.43,1.05 1.07,1.12 0.41,0.05 0.89,0.1 1.21,-0.28 0.12,-0.14 0.17,-0.21 0.18,-0.37z"/>
   <path class="fil3" d="M3.73 30.78l0.6 0.39c0.09,0.04 0.14,0.04 0.23,0.08 0.22,0.09 0.06,0.08 0.46,0.2 0.16,0.05 0.3,0.15 0.47,0.15 0.07,-0.12 0.05,-0.09 0.09,-0.21l-1.33 -0.47c0.35,-0.06 1.09,0.06 1.38,-0.03 -0.06,-0.41 -0.12,-1.11 -0.51,-1.35 -0.36,0.12 -1.32,0.95 -1.39,1.24z"/>
   <path class="fil3" d="M17.74 29.98c0.03,0.15 0.52,0.14 0.94,0.43l-1.05 -0.05c-0.07,0.34 0,0.85 0.17,1.2 0.32,0.17 0.59,0.03 0.96,-0.21 0.18,-0.12 0.71,-0.51 0.79,-0.66 -0.09,-0.12 -1.62,-0.94 -1.81,-0.71z"/>
   <path class="fil3" d="M9.94 14.65c-0.24,0.21 -0.45,0.93 -0.44,1.08 0.05,0.42 0.68,0.48 1.04,0.42 0.32,-0.04 0.33,-0.22 0.35,-0.45 0.02,-0.17 0.05,-0.49 0.02,-0.64 -0.08,-0.39 -0.69,-0.68 -0.97,-0.41z"/>
   <path class="fil2" d="M11.32 24.25c1.37,-0.34 1.22,-0.11 2.12,-0.18 -1.38,-0.55 -0.93,-0.65 -1.24,-1.57 0.01,0.18 -0.06,0.86 -0.12,1.01 -0.12,0.29 -0.44,0.54 -0.76,0.74z"/>
   <path class="fil2" d="M14.88 33.01l-0.11 0.02c-0.12,0.04 -0.24,0.13 -0.44,0.12 -0.13,-0.02 -0.33,-0.13 -0.44,-0.24 -0.39,-0.4 -0.25,-0.74 -0.34,-1.13 -0.06,0.19 -0.12,0.33 -0.1,0.6 0.03,0.61 0.62,1.34 1.43,0.63z"/>
   <path class="fil2" d="M9.73 33.08c-0.52,0.14 -0.71,0.23 -1.02,-0.17 -0.3,-0.39 -0.23,-0.74 -0.26,-1.14 -0.4,0.68 -0.01,1.62 0.67,1.61 0.38,-0.01 0.43,-0.18 0.61,-0.3z"/>
  </g>
 </g>
</svg>
