<?xml version="1.0" encoding="UTF-8"?>
<!DOCTYPE svg PUBLIC "-//W3C//DTD SVG 1.1//EN" "http://www.w3.org/Graphics/SVG/1.1/DTD/svg11.dtd">
<!-- Creator: CorelDRAW 2020 (64-Bit) -->
<svg xmlns="http://www.w3.org/2000/svg" xml:space="preserve" width="32px" height="48px" version="1.1" style="shape-rendering:geometricPrecision; text-rendering:geometricPrecision; image-rendering:optimizeQuality; fill-rule:evenodd; clip-rule:evenodd"
viewBox="0 0 32.6 48.81"
 xmlns:xlink="http://www.w3.org/1999/xlink"
 xmlns:xodm="http://www.corel.com/coreldraw/odm/2003">
 <defs>
  <style type="text/css">
   <![CDATA[
    .str1 {stroke:#404142;stroke-width:0.49;stroke-miterlimit:22.9256}
    .str2 {stroke:#404142;stroke-width:0.02;stroke-miterlimit:22.9256}
    .str0 {stroke:#404142;stroke-width:0.99;stroke-linejoin:round;stroke-miterlimit:22.9256}
    .fil1 {fill:#404142}
    .fil0 {fill:white}
   ]]>
  </style>
 </defs>
 <g id="Layer_x0020_1">
  <metadata id="CorelCorpID_0Corel-Layer"/>
  <path class="fil0 str0" d="M19.66 44.07c0.36,0.62 1.67,0.49 2.14,0.18 0.89,-0.59 2.12,0.7 1.74,1.28 -2.31,0.44 -2.04,-0.82 -4.58,1.34 0.06,0.74 0.82,1.28 1.59,1.42 1.13,0.19 7.97,-0.87 9.28,-0.55 0.3,0.08 0.52,0.02 0.66,-0.11 0.11,-0.1 0.24,-0.05 0.39,-0.42 0.1,-0.26 0.01,-1.16 -0.04,-1.44 -0.06,-0.34 -0.04,-0.18 0.16,-0.58 5.55,-11.18 -11.23,-21.73 -13.19,-28.79 -0.16,-0.75 -0.4,-3.54 -0.44,-3.68 -0.23,-0.74 -0.48,-4.24 -0.92,-5.26 0.07,-0.38 1.56,-2.22 1.9,-2.94 0.25,-0.52 0.26,-1.26 -0.52,-1.14 -0.09,-0.07 0.9,-2.49 0.17,-2.8 -1.4,-0.59 -3.42,1.92 -4.81,2.54 -0.35,0.16 -2.61,-0.24 -3.43,-0.11 -0.36,0.05 -2.05,0.56 -2.26,0.8 -1.75,1.91 -2.54,1.66 -5.07,2.22 -0.23,0.06 -1.24,0.43 -1.4,0.52 -0.21,0.11 -0.49,0.23 -0.52,0.46 -0.04,0.38 -0.03,0.91 0.28,1.17 0.13,0.11 0.73,0.56 0.84,0.61 0.08,0.25 0.79,1 1,1.13 0.78,0.48 2.54,1.63 3.31,1.96 0.45,0.19 0.84,-0.11 1.06,0.04 0.32,0.21 0.52,0.33 0.74,0.65 -0.53,0.81 -0.15,1.92 -0.2,1.99 -0.18,0.29 -1.73,8.8 -1.57,9.74 0.16,0.93 3.01,7.84 3.3,8.31 0.28,0.46 -0.14,6.99 -0.29,7.71 -0.03,0.12 -2.03,-0.18 -1.74,1.32 0.09,0.44 0.2,0.73 0.66,1.06 0.11,0.08 0.26,0.15 0.39,0.16 0.08,0.31 -0.74,1.5 -1.16,1.64 -0.87,0.28 -2.27,1.21 -2.35,2.14 -0.29,1.08 0.46,0.62 0.66,1.04 0.65,1.36 3.74,-1 3.88,-1.13 0.18,-0.19 1.01,-2.92 1.32,-3.12 0.47,-0.29 2.06,-5.27 2.17,-5.95 0.06,-0.44 0.31,-1.78 0.54,-2.16 0.04,-0.03 3.95,0.99 3.78,1.45 -0.16,0.4 -2.39,0.57 -2.37,1.96 0,0.43 0.71,1.04 1.21,0.91 1.96,-0.54 5.95,-0.45 5.36,2.23 -0.07,-0.02 0.02,-0.04 -0.17,0.01 -0.73,0.17 -2.04,1.21 -1.62,2.02 0.03,0.06 0.08,0.13 0.12,0.17z"/>
  <path class="fil1 str1" d="M25.67 36.05c0.35,0.04 0.28,-0.26 0.09,-0.35 -2.79,-1.32 -5.62,1.05 -4.61,4.01 0.53,-4.42 4.17,-3.7 4.52,-3.66z"/>
  <path class="fil1 str2" d="M1.17 8.18c0.26,-0.31 0.14,-0.51 0.36,-0.8 0.15,-0.1 0.02,0.33 0.16,0.34 0.17,-0.33 0.25,-0.64 0.4,-0.97 0.05,-0.12 0.68,-0.53 1.2,-0.63 0.12,-0.02 0.34,-0.09 0.36,-0.18 0.03,-0.11 0.42,-0.22 0.42,-0.22 -0.02,-0.06 -0.01,-0.04 -0.08,-0.07 -0.43,0.09 -0.38,0.07 -0.77,0.18l-0.79 0.17c-0.23,0.07 -1.23,0.44 -1.4,0.53 -0.21,0.11 -0.49,0.23 -0.51,0.45 -0.05,0.39 -0.05,0.9 0.24,1.18 0.04,0.08 0.26,0.12 0.41,0.02z"/>
  <path class="fil1" d="M7.21 4.65c-0.11,-0.16 0.33,-0.5 0.47,0.01 0.1,0.36 0.21,0.24 0.29,0.82 0.02,0.18 0.34,0.74 -0.24,0.58 -0.75,-0.21 -0.91,-0.59 -0.62,-1.09 0.06,-0.1 0.19,-0.18 0.1,-0.32z"/>
  <path class="fil1" d="M7.24 4.7c0.02,0.07 0.12,0.2 0.15,0.25 0.02,0.05 0.52,0.56 0.5,0.57 -0.09,0.1 -0.1,0.14 -0.29,0.29 -0.19,0.16 -0.32,0.1 -0.46,-0.1 -0.1,-0.13 -0.1,-0.47 -0.04,-0.62 0.04,-0.11 0.12,-0.21 0.13,-0.34 0.01,-0.02 0.01,-0.05 0.01,-0.05z"/>
  <path class="fil0" d="M7.07 5.15c0.08,-0.02 0.65,-0.1 0.6,0.17 0,0.02 -0.03,0.12 -0.09,0.06 -0.14,-0.15 -0.44,0.06 -0.55,-0.13 -0.02,-0.03 -0.01,-0.08 0.04,-0.1z"/>
  <path class="fil1" d="M17.33 3.47c0.48,-0.93 0.61,-1.47 0.69,-2.27 0.07,-0.79 -0.21,-0.95 -1.25,-0.31 -1.05,0.64 -4,3.74 -4.65,5.08 2.21,0.36 1.92,1.86 2.4,1.76 0.05,-0.12 0.61,-0.58 0.75,-0.63 0.08,-0.51 1.78,-3.58 2.06,-3.63z"/>
  <path class="fil1" d="M17.5 3.3c-0.04,0.02 -0.13,0 -0.19,0.08 -0.34,0.42 -2.11,4.38 -1.86,4.62 0.22,-0.07 1.71,-2.23 1.93,-2.56 0.33,-0.52 0.67,-0.99 0.75,-1.62 0.03,-0.31 -0.27,-0.57 -0.55,-0.53l-0.08 0.01z"/>
  <path class="fil1" d="M21.37 40.27c-0.9,-0.75 -0.45,0.13 -0.4,0.14 0.27,0.09 0.2,1.4 0.02,1.52 -2.6,1.7 -1.28,2.9 1.52,2.19 0.11,-0.02 0.75,-0.23 0.83,-0.14 -1.48,-0.94 -1.08,-2.95 -1.97,-3.71z"/>
  <path class="fil1" d="M17.5 36.33c-0.18,-0.16 -0.3,-0.26 -0.34,-0.23 -0.3,0.22 -0.97,0.92 -1.49,1.38 -1.78,1.59 -0.09,2.34 2.26,1.88 0.11,-0.03 2.87,0.2 2.95,0.29 -0.24,-1.49 -3.19,-3.16 -3.38,-3.32z"/>
  <path class="fil1" d="M7.74 42.66c1.26,1.48 2.56,-3.25 0.57,-2.18 -1.42,0.77 -1.55,1.03 -0.57,2.18z"/>
 </g>
</svg>
