<?xml version="1.0" encoding="UTF-8"?>
<!DOCTYPE svg PUBLIC "-//W3C//DTD SVG 1.1//EN" "http://www.w3.org/Graphics/SVG/1.1/DTD/svg11.dtd">
<!-- Creator: CorelDRAW 2020 (64-Bit) -->
<svg xmlns="http://www.w3.org/2000/svg" xml:space="preserve" width="16px" height="27px" version="1.1" style="shape-rendering:geometricPrecision; text-rendering:geometricPrecision; image-rendering:optimizeQuality; fill-rule:evenodd; clip-rule:evenodd"
viewBox="0 0 10.2 17.41"
 xmlns:xlink="http://www.w3.org/1999/xlink"
 xmlns:xodm="http://www.corel.com/coreldraw/odm/2003">
 <defs>
  <style type="text/css">
   <![CDATA[
    .str0 {stroke:black;stroke-width:0.05;stroke-miterlimit:22.9256}
    .fil2 {fill:#404142}
    .fil0 {fill:#99FFFF}
    .fil3 {fill:#F6F6F6}
    .fil1 {fill:white}
   ]]>
  </style>
 </defs>
 <g id="Layer_x0020_1">
  <metadata id="CorelCorpID_0Corel-Layer"/>
  <g id="_2012623878416">
   <path class="fil0 str0" d="M8.98 2.95c-0.4,0.02 -0.34,-0.29 -0.58,0.3 -0.08,0.19 -0.28,0.65 -0.16,0.84 0.08,0.11 0.25,0.21 0.34,0.3 -0.26,-0.04 -0.48,-0.26 -0.62,-0.05l-0.14 0.3c-0.16,0.3 -0.3,0.6 -0.56,0.85 -0.18,0.18 -0.3,0.36 -0.45,0.53 0.14,-0.61 0.4,-0.47 0.12,-1.31 -0.2,-0.58 -0.72,-0.98 -1.02,-0.65l0.14 0.04c0.14,0.03 0.29,0.1 0.4,0.22 -0.11,-0.09 -0.35,-0.14 -0.54,-0.14 -0.23,-0.01 -0.24,0.26 -0.28,0.44 -0.07,0.28 -0.28,0.92 -0.18,1.18 0.15,0.01 0.39,0.12 0.51,0.24 -0.12,-0.04 -0.15,-0.08 -0.32,-0.1 -0.21,-0.03 -0.18,-0.03 -0.32,0.09 0.07,0.13 0.12,0.12 0.15,0.3 0.02,0.18 -0.01,0.42 -0.11,0.57 -0.04,0.06 -0.12,0.16 -0.16,0.23 0.35,0.11 0.43,0.29 0.39,0.7 -0.04,0.5 -0.28,0.38 -0.67,0.37 0.21,0.21 0.65,0.11 0.8,-0.12 0.18,-0.29 0.25,-0.68 0.37,-1 0.02,-0.08 0.05,-0.12 0.08,-0.2 0.04,-0.14 0.1,-0.25 0.15,-0.39l0.15 -0.39c0.05,-0.12 0.14,-0.27 0.16,-0.39 -0.02,0.34 -0.35,1.25 -0.33,1.42 0.14,-0.01 0.24,0.01 0.41,-0.01 0.16,-0.03 0.31,-0.07 0.46,-0.08 0.14,-0.02 0.3,-0.02 0.42,-0.02 0.11,0 0.24,0 0.34,0.03l0.07 0.03c-0.13,0 -0.26,-0.02 -0.41,-0.01 -0.31,0.02 -0.6,0.09 -0.89,0.15 -0.19,0.04 -0.27,0.03 -0.43,0.03 -0.02,0.06 -0.13,0.54 -0.13,0.58 0.13,0.04 0.87,-0.05 1.04,-0.08 -0.16,0.07 -0.38,0.13 -0.56,0.18 -0.69,0.21 -0.43,-0.07 -0.62,0.32 -0.12,0.25 -0.23,0.39 -0.53,0.51 0.05,0.14 0.38,0.37 0.55,0.96 0.11,0.37 0.08,0.7 0.04,1.01 -0.09,-0.57 -0.05,-0.88 -0.42,-1.42 -0.3,-0.42 -0.58,-0.56 -0.95,-0.84 -0.27,-0.21 -0.75,-0.62 -1.17,-0.25 -0.31,0.26 -0.52,0.68 -0.75,1 0.03,-0.1 0.05,-0.18 0.09,-0.28 0.02,-0.06 0.11,-0.2 0.11,-0.28 -0.2,0.07 -0.45,0.11 -0.62,0.07 0.34,-0.13 0.56,-0.16 0.79,-0.42 0.14,-0.15 0.34,-0.5 0.39,-0.65 -0.2,-0.19 -0.38,-0.28 -0.52,-0.61l0.13 0.12c0.13,0.14 0.27,0.19 0.47,0.21 0.56,0.05 1.5,-0.12 1.63,-0.78 0.02,-0.09 0.05,-0.29 -0.04,-0.35 -0.04,0.16 -0.05,0.28 -0.25,0.38 -0.17,0.08 -0.37,0.07 -0.52,0.05 -0.59,-0.11 -0.51,-0.41 -0.52,-0.72 -0.58,-0.05 -1.07,-0.47 -1.14,-0.03 -0.03,0.14 0.02,0.33 0.04,0.49 -0.21,-0.19 -0.28,-0.53 -0.58,0.12 -0.19,0.41 -0.36,0.83 -0.48,1.27 -0.19,0.66 -0.25,1.23 0.26,1.98 0.38,0.57 0.82,1.13 1.26,1.63 0.19,0.22 0.49,0.52 0.7,0.64 0.32,0.17 0.5,0.17 0.91,0.21 -0.68,0.2 -0.96,-0.33 -0.9,0.83 0.03,0.4 0.04,0.66 0.02,1.06 -0.01,0.11 -0.05,0.26 -0.04,0.36 0.46,0.01 0.99,0.02 1.47,0.01 0.05,-0.64 0.05,-1.26 0.17,-1.85 0.05,0.23 0.05,0.67 0.06,0.91 0,0.15 0,0.29 0.01,0.45 0,0.15 -0.01,0.3 0.01,0.45l0.49 -0.01c0.06,-0.46 -0.09,-0.61 0.17,-1.61l0.16 -0.46c0.09,0.3 -0.31,1.49 -0.06,2.05 0.25,0.03 1.42,0.07 1.72,-0.16l0.11 -2.69c-0.32,0.2 -0.26,0.17 -0.63,0.28 0.39,-0.18 0.46,-0.28 0.65,-0.57 0.09,-0.14 0.14,-0.57 0.18,-0.76 0.11,-0.45 0.22,-1.12 0.21,-1.63 -0.02,-0.58 -0.15,-1.21 -0.23,-1.82 -0.04,-0.23 -0.07,-0.44 -0.07,-0.66 0,-0.33 0.09,-0.35 -0.59,-0.77 0.26,0.02 0.43,0.16 0.66,0.29 0.12,-0.28 0.18,-0.58 0.32,-0.86 0.03,-0.07 0.05,-0.14 0.08,-0.22 0.03,-0.1 0.04,-0.11 0.09,-0.21 0.22,-0.43 0.32,-0.84 0.44,-1.32 0.08,-0.31 0.14,-0.61 0.23,-0.92 0.1,-0.32 0.38,-1.08 -0.14,-1.37 -0.34,-0.19 -0.51,0.35 -0.58,0.59 -0.09,0.32 -0.24,0.58 -0.22,0.92 0,0.18 0.21,0.27 0.31,0.37z"/>
   <path class="fil0 str0" d="M3.96 4.08c0.11,0.02 0.28,-0.03 0.41,-0.03 0.14,0 0.26,0.02 0.36,0.07 -0.22,-0.01 -0.32,-0.04 -0.58,0.03 -0.33,0.09 -0.36,0.13 -0.43,0.38 -0.09,0.32 -0.09,0.8 0.04,1.2 0.09,0 0.18,0.02 0.28,0.03 0.09,0.01 0.18,0.02 0.28,0.02 0.2,0.01 0.39,0.07 0.56,0.08l0.35 -1.45c-0.01,-0.04 -0.2,-0.23 -0.25,-0.29 -0.24,-0.28 -0.67,-0.44 -1.02,-0.04z"/>
   <path class="fil0 str0" d="M1.4 1.94c-0.46,0.23 -0.51,0.19 -0.35,0.67 0.09,0.27 0.21,0.79 0.44,0.88 0.18,-0.02 0.39,-0.13 0.59,-0.1 -0.11,0.05 -0.22,0.1 -0.32,0.15 -0.34,0.21 -0.28,0.32 -0.09,0.86 0.08,0.24 0.16,0.47 0.25,0.7 0.1,0.27 0.14,0.47 0.35,0.58 0.18,-0.09 0.28,-0.21 0.51,-0.2 0.18,0 0.31,0.08 0.46,0.08l-0.04 -0.41c-0.27,-0.04 -0.57,0.2 -0.81,0.3 0.2,-0.14 0.23,-0.29 0.76,-0.5 -0.04,-0.17 -0.64,-1.68 -0.75,-1.91 -0.27,-0.6 -0.57,-1.22 -0.79,-1.84 -0.14,-0.4 -0.37,-0.92 -0.86,-0.76 -0.23,0.09 -0.22,0.17 -0.23,0.31 -0.02,0.34 0.23,1.28 0.44,1.25 0.15,-0.02 0.28,-0.1 0.44,-0.06z"/>
   <path class="fil0 str0" d="M5.17 6.21c-0.21,-0.17 -1,-0.25 -1.23,-0.23 0.05,0.4 0.22,0.52 0.53,0.56 0.21,0.02 0.45,0.04 0.61,-0.14 0.06,-0.07 0.09,-0.11 0.09,-0.19z"/>
   <path class="fil0 str0" d="M4.97 7.32c-0.12,0.11 -0.23,0.47 -0.22,0.55 0.02,0.2 0.34,0.23 0.52,0.21 0.16,-0.03 0.16,-0.12 0.17,-0.23 0.01,-0.08 0.03,-0.25 0.01,-0.32 -0.04,-0.2 -0.34,-0.34 -0.48,-0.21z"/>
   <path class="fil1 str0" d="M8.88 16.56c0.07,-0.17 0.01,-0.11 0.02,-0.32 0.03,-0.08 1.23,-0.61 1.12,-0.96 -0.07,-0.25 -0.43,-0.36 -0.61,-0.44 -0.06,-0.03 -0.07,-0.05 -0.13,-0.07 -0.09,-0.03 -0.17,-0.05 -0.27,-0.09 -0.03,-0.14 -0.05,-0.32 -0.07,-0.47 -0.05,-0.34 -0.13,-0.29 -0.22,-0.38 -0.05,-0.05 -0.07,-1.97 -0.06,-2.14 0.01,-0.43 0.34,-1.47 0.39,-2.37 0.06,-0.98 -0.19,-1.75 -0.27,-2.66 -0.03,-0.41 0.02,-0.48 0.12,-0.79l0.2 -0.56c0.17,-0.42 0.36,-0.82 0.5,-1.26 0.12,-0.39 0.19,-0.77 0.29,-1.14l0.22 -0.76c0.03,-0.12 0.06,-0.25 0.06,-0.39 0,-0.07 0,-0.14 0,-0.21 -0.03,-0.25 -0.06,-0.16 -0.01,-0.21l-0.09 -0.23c-0.08,-0.01 0.03,0.07 -0.13,-0.14 -0.24,-0.32 -0.75,-0.51 -1.15,-0.19 -0.37,0.31 -0.45,0.79 -0.55,1.22 -0.06,0.24 -0.1,0.45 -0.16,0.68 -0.09,0.32 -0.69,1.69 -0.81,1.82 -0.15,-0.38 -0.44,-0.79 -0.83,-0.89 -0.45,-0.12 -0.75,-0.09 -1.13,0.28 -0.08,-0.06 -0.13,-0.13 -0.22,-0.2 -0.61,-0.46 -1.5,-0.17 -1.77,0.35 -0.03,0.07 0,0.04 -0.06,0.1 -0.2,-0.43 -0.35,-0.92 -0.55,-1.37 -0.19,-0.43 -0.4,-0.86 -0.58,-1.3 -0.17,-0.43 -0.29,-0.92 -0.61,-1.21 -0.15,-0.14 -0.29,-0.21 -0.48,-0.23 -0.18,-0.02 -0.41,0.02 -0.59,0.13 -0.77,0.45 -0.31,1.45 -0.03,2.29 0.32,0.91 0.65,1.81 0.96,2.72 0.08,0.23 0.16,0.46 0.23,0.69 0.12,0.35 0.15,0.33 0.04,0.59 -0.09,0.21 -0.36,0.8 -0.41,0.98l-0.17 0.5c-0.22,0.64 -0.31,1.09 0.05,1.68 0.4,0.68 0.96,1.33 1.45,1.89 0.13,0.15 0.28,0.28 0.37,0.47 0.25,0.51 0.4,1.33 0.37,1.87 -0.41,0.12 -0.73,0.4 -0.8,0.52 -0.08,0.12 -0.09,0.23 -0.11,0.32 -0.03,0.06 -0.66,0.35 -0.74,0.64 -0.08,0.3 0.37,0.49 0.51,0.56 0.25,0.13 0.3,0.05 0.33,0.25 0.02,0.11 -0.02,0.35 0.04,0.44 1.25,1.16 5.66,1.01 6.34,-0.01z"/>
   <path class="fil2" d="M8.88 16.56c0.07,-0.17 0.01,-0.11 0.02,-0.32 0.03,-0.08 1.23,-0.61 1.12,-0.96 -0.07,-0.25 -0.43,-0.36 -0.61,-0.44 -0.06,-0.03 -0.07,-0.05 -0.13,-0.07 -0.09,-0.03 -0.17,-0.05 -0.27,-0.09 -0.03,-0.14 -0.05,-0.32 -0.07,-0.47 -0.05,-0.34 -0.13,-0.29 -0.22,-0.38 -0.05,-0.05 -0.07,-1.97 -0.06,-2.14 0.01,-0.43 0.34,-1.47 0.39,-2.37 0.06,-0.98 -0.19,-1.75 -0.27,-2.66 -0.03,-0.41 0.02,-0.48 0.12,-0.79l0.2 -0.56c0.17,-0.42 0.36,-0.82 0.5,-1.26 0.12,-0.39 0.19,-0.77 0.29,-1.14l0.22 -0.76c0.03,-0.12 0.06,-0.25 0.06,-0.39 0,-0.07 0,-0.14 0,-0.21 -0.03,-0.25 -0.06,-0.16 -0.01,-0.21l-0.09 -0.23c-0.08,-0.01 0.03,0.07 -0.13,-0.14 -0.24,-0.32 -0.75,-0.51 -1.15,-0.19 -0.37,0.31 -0.45,0.79 -0.55,1.22 -0.06,0.24 -0.1,0.45 -0.16,0.68 -0.09,0.32 -0.69,1.69 -0.81,1.82 -0.15,-0.38 -0.44,-0.79 -0.83,-0.89 -0.45,-0.12 -0.75,-0.09 -1.13,0.28 -0.08,-0.06 -0.13,-0.13 -0.22,-0.2 -0.61,-0.46 -1.5,-0.17 -1.77,0.35 -0.03,0.07 0,0.04 -0.06,0.1 -0.2,-0.43 -0.35,-0.92 -0.55,-1.37 -0.19,-0.43 -0.4,-0.86 -0.58,-1.3 -0.17,-0.43 -0.29,-0.92 -0.61,-1.21 -0.15,-0.14 -0.29,-0.21 -0.48,-0.23 -0.18,-0.02 -0.41,0.02 -0.59,0.13 -0.77,0.45 -0.31,1.45 -0.03,2.29 0.32,0.91 0.65,1.81 0.96,2.72 0.08,0.23 0.16,0.46 0.23,0.69 0.12,0.35 0.15,0.33 0.04,0.59 -0.09,0.21 -0.36,0.8 -0.41,0.98l-0.17 0.5c-0.22,0.64 -0.31,1.09 0.05,1.68 0.4,0.68 0.96,1.33 1.45,1.89 0.13,0.15 0.28,0.28 0.37,0.47 0.25,0.51 0.4,1.33 0.37,1.87 -0.41,0.12 -0.73,0.4 -0.8,0.52 -0.08,0.12 -0.09,0.23 -0.11,0.32 -0.03,0.06 -0.66,0.35 -0.74,0.64 -0.08,0.3 0.37,0.49 0.51,0.56 0.25,0.13 0.3,0.05 0.33,0.25 0.02,0.11 -0.02,0.35 0.04,0.44 1.25,1.16 5.66,1.01 6.34,-0.01zm-3.91 -9.24c-0.12,0.11 -0.23,0.47 -0.22,0.55 0.02,0.2 0.34,0.23 0.52,0.21 0.16,-0.03 0.16,-0.12 0.17,-0.23 0.01,-0.08 0.03,-0.25 0.01,-0.32 -0.04,-0.2 -0.34,-0.34 -0.48,-0.21zm0.2 -1.11c-0.21,-0.17 -1,-0.25 -1.23,-0.23 0.05,0.4 0.22,0.52 0.53,0.56 0.21,0.02 0.45,0.04 0.61,-0.14 0.06,-0.07 0.09,-0.11 0.09,-0.19zm-3.77 -4.27c-0.46,0.23 -0.51,0.19 -0.35,0.67 0.09,0.27 0.21,0.79 0.44,0.88 0.18,-0.02 0.39,-0.13 0.59,-0.1 -0.11,0.05 -0.22,0.1 -0.32,0.15 -0.34,0.21 -0.28,0.32 -0.09,0.86 0.08,0.24 0.16,0.47 0.25,0.7 0.1,0.27 0.14,0.47 0.35,0.58 0.18,-0.09 0.28,-0.21 0.51,-0.2 0.18,0 0.31,0.08 0.46,0.08l-0.04 -0.41c-0.27,-0.04 -0.57,0.2 -0.81,0.3 0.2,-0.14 0.23,-0.29 0.76,-0.5 -0.04,-0.17 -0.64,-1.68 -0.75,-1.91 -0.27,-0.6 -0.57,-1.22 -0.79,-1.84 -0.14,-0.4 -0.37,-0.92 -0.86,-0.76 -0.23,0.09 -0.22,0.17 -0.23,0.31 -0.02,0.34 0.23,1.28 0.44,1.25 0.15,-0.02 0.28,-0.1 0.44,-0.06zm2.56 2.14c0.11,0.02 0.28,-0.03 0.41,-0.03 0.14,0 0.26,0.02 0.36,0.07 -0.22,-0.01 -0.32,-0.04 -0.58,0.03 -0.33,0.09 -0.36,0.13 -0.43,0.38 -0.09,0.32 -0.09,0.8 0.04,1.2 0.09,0 0.18,0.02 0.28,0.03 0.09,0.01 0.18,0.02 0.28,0.02 0.2,0.01 0.39,0.07 0.56,0.08l0.35 -1.45c-0.01,-0.04 -0.2,-0.23 -0.25,-0.29 -0.24,-0.28 -0.67,-0.44 -1.02,-0.04zm5.02 -1.13c-0.4,0.02 -0.34,-0.29 -0.58,0.3 -0.08,0.19 -0.28,0.65 -0.16,0.84 0.08,0.11 0.25,0.21 0.34,0.3 -0.26,-0.04 -0.48,-0.26 -0.62,-0.05l-0.14 0.3c-0.16,0.3 -0.3,0.6 -0.56,0.85 -0.18,0.18 -0.3,0.36 -0.45,0.53 0.14,-0.61 0.4,-0.47 0.12,-1.31 -0.2,-0.58 -0.72,-0.98 -1.02,-0.65l0.14 0.04c0.14,0.03 0.29,0.1 0.4,0.22 -0.11,-0.09 -0.35,-0.14 -0.54,-0.14 -0.23,-0.01 -0.24,0.26 -0.28,0.44 -0.07,0.28 -0.28,0.92 -0.18,1.18 0.15,0.01 0.39,0.12 0.51,0.24 -0.12,-0.04 -0.15,-0.08 -0.32,-0.1 -0.21,-0.03 -0.18,-0.03 -0.32,0.09 0.07,0.13 0.12,0.12 0.15,0.3 0.02,0.18 -0.01,0.42 -0.11,0.57 -0.04,0.06 -0.12,0.16 -0.16,0.23 0.35,0.11 0.43,0.29 0.39,0.7 -0.04,0.5 -0.28,0.38 -0.67,0.37 0.21,0.21 0.65,0.11 0.8,-0.12 0.18,-0.29 0.25,-0.68 0.37,-1 0.02,-0.08 0.05,-0.12 0.08,-0.2 0.04,-0.14 0.1,-0.25 0.15,-0.39l0.15 -0.39c0.05,-0.12 0.14,-0.27 0.16,-0.39 -0.02,0.34 -0.35,1.25 -0.33,1.42 0.14,-0.01 0.24,0.01 0.41,-0.01 0.16,-0.03 0.31,-0.07 0.46,-0.08 0.14,-0.02 0.3,-0.02 0.42,-0.02 0.11,0 0.24,0 0.34,0.03l0.07 0.03c-0.13,0 -0.26,-0.02 -0.41,-0.01 -0.31,0.02 -0.6,0.09 -0.89,0.15 -0.19,0.04 -0.27,0.03 -0.43,0.03 -0.02,0.06 -0.13,0.54 -0.13,0.58 0.13,0.04 0.87,-0.05 1.04,-0.08 -0.16,0.07 -0.38,0.13 -0.56,0.18 -0.69,0.21 -0.43,-0.07 -0.62,0.32 -0.12,0.25 -0.23,0.39 -0.53,0.51 0.05,0.14 0.38,0.37 0.55,0.96 0.11,0.37 0.08,0.7 0.04,1.01 -0.09,-0.57 -0.05,-0.88 -0.42,-1.42 -0.3,-0.42 -0.58,-0.56 -0.95,-0.84 -0.27,-0.21 -0.75,-0.62 -1.17,-0.25 -0.31,0.26 -0.52,0.68 -0.75,1 0.03,-0.1 0.05,-0.18 0.09,-0.28 0.02,-0.06 0.11,-0.2 0.11,-0.28 -0.2,0.07 -0.45,0.11 -0.62,0.07 0.34,-0.13 0.56,-0.16 0.79,-0.42 0.14,-0.15 0.34,-0.5 0.39,-0.65 -0.2,-0.19 -0.38,-0.28 -0.52,-0.61l0.13 0.12c0.13,0.14 0.27,0.19 0.47,0.21 0.56,0.05 1.5,-0.12 1.63,-0.78 0.02,-0.09 0.05,-0.29 -0.04,-0.35 -0.04,0.16 -0.05,0.28 -0.25,0.38 -0.17,0.08 -0.37,0.07 -0.52,0.05 -0.59,-0.11 -0.51,-0.41 -0.52,-0.72 -0.58,-0.05 -1.07,-0.47 -1.14,-0.03 -0.03,0.14 0.02,0.33 0.04,0.49 -0.21,-0.19 -0.28,-0.53 -0.58,0.12 -0.19,0.41 -0.36,0.83 -0.48,1.27 -0.19,0.66 -0.25,1.23 0.26,1.98 0.38,0.57 0.82,1.13 1.26,1.63 0.19,0.22 0.49,0.52 0.7,0.64 0.32,0.17 0.5,0.17 0.91,0.21 -0.68,0.2 -0.96,-0.33 -0.9,0.83 0.03,0.4 0.04,0.66 0.02,1.06 -0.01,0.11 -0.05,0.26 -0.04,0.36 0.46,0.01 0.99,0.02 1.47,0.01 0.05,-0.64 0.05,-1.26 0.17,-1.85 0.05,0.23 0.05,0.67 0.06,0.91 0,0.15 0,0.29 0.01,0.45 0,0.15 -0.01,0.3 0.01,0.45l0.49 -0.01c0.06,-0.46 -0.09,-0.61 0.17,-1.61l0.16 -0.46c0.09,0.3 -0.31,1.49 -0.06,2.05 0.25,0.03 1.42,0.07 1.72,-0.16l0.11 -2.69c-0.32,0.2 -0.26,0.17 -0.63,0.28 0.39,-0.18 0.46,-0.28 0.65,-0.57 0.09,-0.14 0.14,-0.57 0.18,-0.76 0.11,-0.45 0.22,-1.12 0.21,-1.63 -0.02,-0.58 -0.15,-1.21 -0.23,-1.82 -0.04,-0.23 -0.07,-0.44 -0.07,-0.66 0,-0.33 0.09,-0.35 -0.59,-0.77 0.26,0.02 0.43,0.16 0.66,0.29 0.12,-0.28 0.18,-0.58 0.32,-0.86 0.03,-0.07 0.05,-0.14 0.08,-0.22 0.03,-0.1 0.04,-0.11 0.09,-0.21 0.22,-0.43 0.32,-0.84 0.44,-1.32 0.08,-0.31 0.14,-0.61 0.23,-0.92 0.1,-0.32 0.38,-1.08 -0.14,-1.37 -0.34,-0.19 -0.51,0.35 -0.58,0.59 -0.09,0.32 -0.24,0.58 -0.22,0.92 0,0.18 0.21,0.27 0.31,0.37z"/>
   <path class="fil3" d="M6.85 15.72c-0.49,0.43 0.1,1.32 0.55,0.9 0.16,-0.14 0.22,-0.43 0.1,-0.7 -0.12,-0.24 -0.41,-0.4 -0.65,-0.2z"/>
   <path class="fil3" d="M4.3 15.72c-0.5,0.4 -0.01,1.34 0.5,0.96 0.18,-0.14 0.27,-0.44 0.16,-0.71 -0.1,-0.27 -0.4,-0.45 -0.66,-0.25z"/>
   <path class="fil3" d="M8.72 13.98c0.2,1.17 -5.71,0.81 -5.89,0.44 0.06,-0.15 0.28,-0.25 0.41,-0.34 0.02,-0.03 0.02,-0.02 0.03,-0.05 -0.76,0.26 -0.77,0.58 -0.06,0.69 1.08,0.17 5.99,0.41 5.51,-0.74z"/>
   <path class="fil3" d="M5.17 6.21c-0.21,-0.17 -1,-0.25 -1.23,-0.23 0.05,0.4 0.22,0.52 0.53,0.56 0.21,0.02 0.45,0.04 0.61,-0.14 0.06,-0.07 0.09,-0.11 0.09,-0.19z"/>
   <path class="fil3" d="M1.87 15.39l0.29 0.2c0.05,0.02 0.08,0.01 0.12,0.03 0.11,0.05 0.03,0.04 0.23,0.1 0.08,0.03 0.15,0.08 0.23,0.08 0.04,-0.06 0.03,-0.04 0.05,-0.11l-0.67 -0.23c0.18,-0.03 0.55,0.03 0.7,-0.02 -0.03,-0.2 -0.07,-0.55 -0.26,-0.67 -0.18,0.06 -0.66,0.48 -0.69,0.62z"/>
   <path class="fil3" d="M8.87 14.99c0.01,0.08 0.26,0.07 0.47,0.22l-0.52 -0.03c-0.04,0.17 0,0.43 0.08,0.6 0.16,0.09 0.3,0.02 0.48,-0.11 0.09,-0.05 0.35,-0.25 0.4,-0.32 -0.05,-0.07 -0.81,-0.48 -0.91,-0.36z"/>
   <path class="fil3" d="M4.97 7.32c-0.12,0.11 -0.23,0.47 -0.22,0.55 0.02,0.2 0.34,0.23 0.52,0.21 0.16,-0.03 0.16,-0.12 0.17,-0.23 0.01,-0.08 0.03,-0.25 0.01,-0.32 -0.04,-0.2 -0.34,-0.34 -0.48,-0.21z"/>
   <path class="fil2" d="M5.66 12.13c0.68,-0.18 0.61,-0.06 1.06,-0.1 -0.69,-0.27 -0.47,-0.32 -0.62,-0.78 0,0.09 -0.03,0.43 -0.06,0.5 -0.06,0.15 -0.22,0.28 -0.38,0.38z"/>
   <path class="fil2" d="M7.44 16.5l-0.05 0.02c-0.06,0.02 -0.13,0.06 -0.22,0.05 -0.07,0 -0.17,-0.06 -0.22,-0.11 -0.2,-0.21 -0.13,-0.38 -0.17,-0.57 -0.04,0.1 -0.07,0.17 -0.06,0.3 0.02,0.3 0.32,0.67 0.72,0.31z"/>
   <path class="fil2" d="M4.86 16.54c-0.25,0.07 -0.35,0.11 -0.5,-0.08 -0.15,-0.2 -0.12,-0.37 -0.13,-0.57 -0.2,0.34 -0.01,0.81 0.33,0.8 0.19,0 0.21,-0.09 0.3,-0.15z"/>
  </g>
 </g>
</svg>
